<svg width="16" height="50" viewBox="0 0 16 50" fill="none" xmlns="http://www.w3.org/2000/svg">
<path fill-rule="evenodd" clip-rule="evenodd" d="M1.41016 0.823676C1.85473 0.60091 2.36959 0.563865 2.84147 0.720691C3.31335 0.877517 3.70362 1.21537 3.92641 1.65993L15.1764 24.1599C15.3071 24.4207 15.3751 24.7083 15.3751 24.9999C15.3751 25.2916 15.3071 25.5792 15.1764 25.8399L3.92641 48.3399C3.81727 48.562 3.66524 48.7603 3.4791 48.9233C3.29296 49.0864 3.07639 49.211 2.84187 49.2899C2.60736 49.3689 2.35953 49.4006 2.11269 49.3833C1.86584 49.366 1.62485 49.3001 1.40363 49.1892C1.1824 49.0783 0.985303 48.9248 0.823703 48.7374C0.662103 48.55 0.539195 48.3325 0.462065 48.0974C0.384934 47.8622 0.355107 47.6142 0.374303 47.3675C0.393499 47.1208 0.461338 46.8803 0.573909 46.6599L11.4002 24.9999L0.573909 3.33993C0.351143 2.89535 0.314097 2.3805 0.470923 1.90862C0.627749 1.43673 0.965601 1.04647 1.41016 0.823676Z" fill="#6A6842"/>
</svg>
