<svg width="286" height="285" viewBox="0 0 286 285" fill="none" xmlns="http://www.w3.org/2000/svg">
<path d="M142.92 3.07031C65.51 3.07031 2.75 65.8303 2.75 143.24C2.75 212.11 52.42 269.37 117.88 281.18L121.69 156.06C121.69 156.06 115.05 158.61 106.88 126.95L91.05 71.8003C91.05 71.8003 108.92 67.7103 114.03 84.5703L118.12 24.8303C118.12 24.8303 130.56 13.8303 133.21 29.3303L133.44 21.0403C133.44 21.0403 139.57 9.08031 150.8 21.0403L149.54 42.4603C151.36 31.9803 154.16 24.5103 158.46 25.3403C158.46 25.3403 166.63 25.3403 166.12 37.6003L165.52 46.7503L164.93 55.6303C166.29 47.5603 168.29 42.6503 171.23 46.2803C171.23 46.2803 178.89 44.2403 178.89 55.9803V140.24C178.89 140.24 179.4 150.45 169.19 157.6L172.59 280.26C235.75 266.65 283.1 210.48 283.1 143.25C283.09 65.8203 220.33 3.07031 142.92 3.07031Z" fill="#DBE0D8" stroke="#9AAC87" stroke-width="5" stroke-miterlimit="10"/>
<path d="M130.76 29.5105L130.92 79.9205L135.67 29.2305L130.76 29.5105Z" fill="#98A985"/>
<path d="M147.11 41.6602L152 42.8002L145.28 79.9202L147.11 41.6602Z" fill="#98A985"/>
<path d="M177.79 46.0303C176.86 44.5903 173.61 43.5303 169.73 43.5303C168.4 43.5303 167.14 43.6603 166.03 43.8803V46.0303H177.79Z" fill="#98A985" stroke="#9AAC87" stroke-miterlimit="10"/>
<path d="M163.31 46.2207L170.78 47.9407L159.39 79.9207L163.31 46.2207Z" fill="#98A985"/>
<path d="M204.49 131.44C204.49 131.44 181.13 138.95 187.76 159.05C187.76 159.05 205.88 157.52 204.49 131.44Z" fill="#41B035"/>
<path d="M186.39 161.19C186.39 161.19 188.53 148.64 200.98 138.95C200.98 138.95 186.78 157.56 188.68 160.71L186.39 161.19Z" fill="#166534"/>
<path d="M178.4 253.37C178.4 253.37 173.09 267.47 186.11 271.81C186.11 271.81 190.83 267.62 182.16 255.05C182.16 255.05 179.03 251.55 179.94 251.36C179.94 251.37 179.39 251.41 178.4 253.37Z" fill="#41B035"/>
<path d="M179.72 257.561C179.72 257.561 181.01 266.731 186.85 273.261L187.47 272.701C187.47 272.711 183.74 269.201 179.72 257.561Z" fill="#166534"/>
<path d="M178.36 232.861C178.36 232.861 173.05 246.961 186.07 251.301C186.07 251.301 190.79 247.111 182.12 234.541C182.12 234.541 178.99 231.041 179.9 230.851C179.9 230.851 179.35 230.901 178.36 232.861Z" fill="#41B035"/>
<path d="M179.68 237.051C179.68 237.051 180.97 246.221 186.81 252.751L187.43 252.191C187.43 252.201 183.71 248.681 179.68 237.051Z" fill="#166534"/>
<path d="M208.94 148.46C208.94 148.46 191.78 166.62 208.09 180.48C208.09 180.48 217.83 176.85 213.36 153.11C213.36 153.11 211.07 146.09 212.54 146.32C212.55 146.32 211.71 146.08 208.94 148.46Z" fill="#41B035"/>
<path d="M208.12 155.49C208.12 155.49 203.95 169.98 208.23 183.07L209.51 182.58C209.51 182.59 206.35 175.22 208.12 155.49Z" fill="#166534"/>
<path d="M209 223.14C209 223.14 195.98 230.72 203.33 242.31C203.33 242.31 209.64 242.04 210.85 226.83C210.85 226.83 210.64 222.14 211.46 222.57C211.47 222.56 211.01 222.25 209 223.14Z" fill="#41B035"/>
<path d="M207.38 227.23C207.38 227.23 202.59 235.16 202.98 243.91L203.81 243.87C203.82 243.86 203.15 238.79 207.38 227.23Z" fill="#166534"/>
<path d="M192.45 219.06C192.45 219.06 181.36 229.26 191.03 239C191.03 239 197.14 237.38 195.05 222.26C195.05 222.26 193.84 217.72 194.73 217.97C194.73 217.96 194.22 217.75 192.45 219.06Z" fill="#41B035"/>
<path d="M191.74 223.391C191.74 223.391 188.76 232.161 191.03 240.621L191.84 240.401C191.84 240.411 190.1 235.591 191.74 223.391Z" fill="#166534"/>
<path d="M196.22 180.031C196.22 180.031 163.69 195.121 178.56 224.201C178.56 224.201 193.57 224.951 199.79 189.161C199.79 189.161 200.32 178.001 202.18 179.201C202.19 179.201 201.17 178.361 196.22 180.031Z" fill="#41B035"/>
<path d="M191.48 189.36C191.48 189.36 178.38 207.09 177.39 227.91L179.38 228C179.38 227.99 178.91 215.82 191.48 189.36Z" fill="#166534"/>
<path d="M193.64 242.91C193.64 242.91 183.77 254.29 194.47 262.88C194.47 262.88 200.35 260.58 196.58 245.79C196.58 245.79 194.86 241.42 195.78 241.56C195.79 241.56 195.25 241.42 193.64 242.91Z" fill="#41B035"/>
<path d="M193.43 247.3C193.43 247.3 191.46 256.35 194.67 264.5L195.45 264.19C195.44 264.19 193.17 259.6 193.43 247.3Z" fill="#166534"/>
<path d="M193.88 162.67C193.88 162.67 174.87 166.31 178.86 183.48C178.86 183.48 186.62 185.84 194.56 167.92C194.56 167.92 196.3 162.15 197.12 163.02C197.11 163.01 196.69 162.44 193.88 162.67Z" fill="#41B035"/>
<path d="M190.18 166.92C190.18 166.92 181 174.49 177.76 185.26L178.79 185.57C178.79 185.57 180.14 179.13 190.18 166.92Z" fill="#166534"/>
<path d="M240 229.281C240 229.281 225.08 231.411 227.54 244.911C227.54 244.911 233.49 247.031 240.33 233.391C240.33 233.391 241.9 228.961 242.5 229.671C242.5 229.671 242.19 229.211 240 229.281Z" fill="#41B035"/>
<path d="M236.96 232.461C236.96 232.461 229.54 238.011 226.62 246.261L227.41 246.541C227.41 246.531 228.69 241.581 236.96 232.461Z" fill="#166534"/>
<path d="M222.25 232.8C222.25 232.8 208.65 239.29 215.03 251.44C215.03 251.44 221.34 251.69 223.79 236.62C223.79 236.62 223.96 231.93 224.75 232.42C224.75 232.42 224.32 232.08 222.25 232.8Z" fill="#41B035"/>
<path d="M220.3 236.74C220.3 236.74 214.88 244.25 214.56 253L215.39 253.03C215.4 253.03 215.14 247.91 220.3 236.74Z" fill="#166534"/>
<path d="M208.7 243.321C208.7 243.321 195.69 250.911 203.05 262.491C203.05 262.491 209.36 262.211 210.55 247.001C210.55 247.001 210.33 242.311 211.16 242.741C211.16 242.741 210.71 242.431 208.7 243.321Z" fill="#41B035"/>
<path d="M207.08 247.411C207.08 247.411 202.3 255.341 202.7 264.091L203.53 264.051C203.54 264.051 202.87 258.971 207.08 247.411Z" fill="#166534"/>
<path d="M237.77 174.09C237.77 174.09 193.69 179.51 200.16 219.43C200.16 219.43 217.57 226.03 238.51 186.21C238.51 186.21 243.39 173.26 245.12 175.38C245.12 175.38 244.25 174.01 237.77 174.09Z" fill="#41B035"/>
<path d="M228.64 183.28C228.64 183.28 206.46 199.2 197.38 223.35L199.69 224.21C199.69 224.21 203.77 209.68 228.64 183.28Z" fill="#166534"/>
<path d="M256.56 201.88C256.56 201.88 221.06 196.83 217.7 229.31C217.7 229.31 229.88 238.12 254.59 211.48C254.59 211.48 261.12 202.41 262.02 204.43C262.01 204.44 261.62 203.18 256.56 201.88Z" fill="#41B035"/>
<path d="M247.51 207.12C247.51 207.12 226.87 214.86 214.7 231.79L216.32 232.94C216.32 232.94 222.56 222.48 247.51 207.12Z" fill="#166534"/>
<path d="M235.21 147.6C235.21 147.6 211.56 155.66 219.53 175.53C219.53 175.53 229.84 176.86 236.96 153.78C236.96 153.78 238.21 146.5 239.4 147.39C239.4 147.39 238.76 146.78 235.21 147.6Z" fill="#41B035"/>
<path d="M231.2 153.44C231.2 153.44 220.76 164.32 218.43 177.89L219.79 178.06C219.8 178.05 220.44 170.06 231.2 153.44Z" fill="#166534"/>
<path d="M278.25 156.61C278.25 156.61 260.88 160.79 264.6 175.75C264.6 175.75 277.84 175.63 278.25 156.61Z" fill="#41B035"/>
<path d="M263.49 177.241C263.49 177.241 265.73 168.241 275.29 161.881C275.29 161.881 263.97 174.621 265.18 177.011L263.49 177.241Z" fill="#166534"/>
<path d="M257.56 156.06C257.56 156.06 237.5 152.64 236.04 170.93C236.04 170.93 250.22 176.94 257.56 156.06Z" fill="#41B035"/>
<path d="M234.32 172.06C234.32 172.06 239.98 163.13 252.5 160.52C252.5 160.52 235.79 169.38 236.2 172.59L234.32 172.06Z" fill="#166534"/>
<path d="M270.87 179.07C270.87 179.07 253.49 183.2 257.16 198.17C257.16 198.16 270.4 198.08 270.87 179.07Z" fill="#41B035"/>
<path d="M256.05 199.64C256.05 199.64 258.31 190.65 267.9 184.32C267.9 184.32 256.54 197.02 257.74 199.42L256.05 199.64Z" fill="#166534"/>
<path d="M258.41 168.46C258.41 168.46 235.59 178.73 244.6 198.35C244.6 198.35 262.79 194.74 258.41 168.46Z" fill="#41B035"/>
<path d="M243.46 200.68C243.46 200.68 244.2 187.71 255.71 176.48C255.71 176.48 243.44 196.95 245.72 199.93L243.46 200.68Z" fill="#166534"/>
<path d="M201.76 105.36C201.76 105.36 175.83 111.53 185.29 134.58C185.29 134.58 205.81 134.58 201.76 105.36Z" fill="#41B035"/>
<path d="M183.94 136.84C183.94 136.84 185.2 123.04 198.48 113.41C198.48 113.41 184.04 132.82 186.51 136.52L183.94 136.84Z" fill="#166534"/>
<path d="M240.5 90.5503C240.5 90.5503 195.15 111.41 218.69 146.35C218.69 146.35 240.22 146.27 246.33 101.59C246.33 101.59 246.22 87.7503 248.98 89.1103C248.98 89.1203 247.46 88.1503 240.5 90.5503Z" fill="#41B035"/>
<path d="M234.45 102.4C234.45 102.4 217.1 125.21 217.31 151.02L220.16 150.99C220.16 150.99 218.54 135.97 234.45 102.4Z" fill="#166534"/>
<path d="M265.96 106.78C265.96 106.78 232.49 119.66 245.38 149.67C245.38 149.67 260.31 151.43 268.92 116.13C268.92 116.13 270.2 105.03 271.98 106.35C271.97 106.35 271.02 105.45 265.96 106.78Z" fill="#41B035"/>
<path d="M260.61 115.761C260.61 115.761 246.35 132.581 243.97 153.281L245.94 153.501C245.94 153.501 246.3 141.321 260.61 115.761Z" fill="#166534"/>
<path d="M275.41 134.59C275.41 134.59 258.52 137.79 261.31 158.08C261.31 158.08 268.04 161.27 275.79 140.76C275.79 140.76 277.57 134.11 278.25 135.17C278.25 135.18 277.9 134.48 275.41 134.59Z" fill="#41B035"/>
<path d="M271.98 139.359C271.98 139.359 263.58 147.699 260.27 160.099L261.16 160.509C261.16 160.519 262.62 153.079 271.98 139.359Z" fill="#166534"/>
<path d="M114.05 9.97073C114.05 9.97073 123.57 5.11073 129.93 16.1407C129.93 16.1407 127.84 20.2707 116.22 13.1507C116.22 13.1507 112.81 10.5607 112.88 11.3407C112.88 11.3407 112.79 10.8607 114.05 9.97073Z" fill="#41B035"/>
<path d="M117.56 11.0107C117.56 11.0107 124.86 11.9108 131.22 16.7408L130.94 17.2807C130.93 17.2807 127.38 14.1807 117.56 11.0107Z" fill="#166534"/>
<path d="M201.84 75.4102C201.84 75.4102 175.91 81.5802 185.37 104.63C185.37 104.62 205.89 104.63 201.84 75.4102Z" fill="#41B035"/>
<path d="M184.01 106.88C184.01 106.88 185.27 93.0802 198.55 83.4502C198.55 83.4502 184.11 102.86 186.58 106.56L184.01 106.88Z" fill="#166534"/>
<path d="M211.61 113.41C211.61 113.41 199.19 116.37 203.72 127.4C203.73 127.4 213.55 127.4 211.61 113.41Z" fill="#41B035"/>
<path d="M203.08 128.48C203.08 128.48 203.68 121.87 210.04 117.26C210.04 117.26 203.13 126.55 204.31 128.32L203.08 128.48Z" fill="#166534"/>
<path d="M235.16 59.21C235.16 59.21 197.37 71.85 207.62 104.2C207.62 104.2 236.85 101.34 235.16 59.21Z" fill="#41B035"/>
<path d="M205.37 107.7C205.37 107.7 209.09 87.3597 229.35 71.4297C229.35 71.4297 206.08 101.81 209.07 106.87L205.37 107.7Z" fill="#166534"/>
<path d="M202.12 20.8701C202.12 20.8701 174.2 26.7901 185.08 51.8501C185.08 51.8501 207.31 52.4201 202.12 20.8701Z" fill="#41B035"/>
<path d="M183.67 54.2504C183.67 54.2504 184.65 39.4404 198.77 29.4404C198.77 29.4404 183.67 49.9304 186.43 53.9704L183.67 54.2504Z" fill="#166534"/>
<path d="M199.72 52.1201C199.72 52.1201 177.65 57.3701 185.7 76.9901C185.7 76.9901 203.17 76.9901 199.72 52.1201Z" fill="#41B035"/>
<path d="M184.55 78.91C184.55 78.91 185.62 67.16 196.93 58.96C196.93 58.96 184.64 75.48 186.74 78.63L184.55 78.91Z" fill="#166534"/>
<path d="M225.48 35.46C225.48 35.46 193.99 42.96 205.48 70.94C205.48 70.94 230.4 70.95 225.48 35.46Z" fill="#41B035"/>
<path d="M203.83 73.6895C203.83 73.6895 205.36 56.9295 221.49 45.2295C221.49 45.2295 203.96 68.7995 206.95 73.2895L203.83 73.6895Z" fill="#166534"/>
<path d="M264.91 83.6406C264.91 83.6406 242.74 88.9206 250.82 108.631C250.82 108.631 268.37 108.631 264.91 83.6406Z" fill="#41B035"/>
<path d="M249.66 110.561C249.66 110.561 250.73 98.7605 262.09 90.5205C262.09 90.5205 249.74 107.121 251.85 110.281L249.66 110.561Z" fill="#166534"/>
<path d="M250.14 63.5703C250.14 63.5703 229.23 66.1403 239.19 85.5403C239.19 85.5503 256.19 87.4403 250.14 63.5703Z" fill="#41B035"/>
<path d="M238.27 87.2402C238.27 87.2402 238.04 76.2602 248.16 69.7402C248.16 69.7402 237.99 84.0202 240.37 87.2202L238.27 87.2402Z" fill="#166534"/>
<path d="M235.52 45.6699C235.52 45.6699 223.1 48.6299 227.63 59.6599C227.63 59.6599 237.46 59.6599 235.52 45.6699Z" fill="#41B035"/>
<path d="M226.98 60.7395C226.98 60.7395 227.58 54.1295 233.94 49.5195C233.94 49.5195 227.03 58.8095 228.21 60.5795L226.98 60.7395Z" fill="#166534"/>
<path d="M243.35 55.1602C243.35 55.1602 234.16 57.3501 237.51 65.5101C237.51 65.5101 244.78 65.5202 243.35 55.1602Z" fill="#41B035"/>
<path d="M237.03 66.3205C237.03 66.3205 237.47 61.4305 242.18 58.0205C242.18 58.0205 237.06 64.9005 237.94 66.2105L237.03 66.3205Z" fill="#166534"/>
<path d="M179.42 14.0898C179.42 14.0898 162.87 25.0998 175.73 38.6998C175.73 38.6998 190.14 33.3898 179.42 14.0898Z" fill="#41B035"/>
<path d="M175.38 40.62C175.38 40.62 172.54 30.69 179.27 20.54C179.27 20.54 174.37 37.79 177.09 39.73L175.38 40.62Z" fill="#166534"/>
<path d="M173.57 11.4703C173.57 11.4703 160.88 6.02026 157.85 18.6703C157.85 18.6603 166.41 25.0403 173.57 11.4703Z" fill="#41B035"/>
<path d="M156.6 19.1907C156.6 19.1907 161.3 13.7607 169.76 13.8307C169.76 13.8307 157.86 17.5308 157.76 19.8508L156.6 19.1907Z" fill="#166534"/>
<path d="M159.27 8.60073C159.27 8.60073 150.24 3.71072 147.14 12.8707C147.14 12.8707 153.05 18.1707 159.27 8.60073Z" fill="#41B035"/>
<path d="M146.17 13.1803C146.17 13.1803 150.02 9.48032 156.28 10.1003C156.28 10.1003 147.21 12.0403 146.99 13.7503L146.17 13.1803Z" fill="#166534"/>
<path d="M131.36 7.38002C131.36 7.38002 140.39 2.49002 143.49 11.65C143.5 11.65 137.58 16.95 131.36 7.38002Z" fill="#41B035"/>
<path d="M144.46 11.9596C144.46 11.9596 140.61 8.25961 134.35 8.87961C134.35 8.87961 143.42 10.8196 143.64 12.5296L144.46 11.9596Z" fill="#166534"/>
<path d="M127.96 10.5507C127.96 10.5507 132.01 8.48069 134.73 13.1807C134.73 13.1807 133.84 14.9407 128.89 11.9107C128.89 11.9107 127.44 10.8107 127.47 11.1407C127.46 11.1307 127.42 10.9307 127.96 10.5507Z" fill="#41B035"/>
<path d="M129.45 10.9902C129.45 10.9902 132.56 11.3702 135.27 13.4302L135.15 13.6602C135.15 13.6602 133.64 12.3402 129.45 10.9902Z" fill="#166534"/>
<path d="M58.19 245.02C58.19 245.02 68.43 244.251 67.52 253.881C67.52 253.881 59.95 256.3 58.19 245.02Z" fill="#41B035"/>
<path d="M68.27 254.56C68.27 254.56 66.27 249.61 60.3 247.61C60.3 247.61 67.78 253.08 67.29 254.74L68.27 254.56Z" fill="#166534"/>
<path d="M41.6 230.8C41.6 230.8 61.01 220.29 67.67 239.98C67.66 239.99 54.96 251.37 41.6 230.8Z" fill="#41B035"/>
<path d="M69.73 240.65C69.73 240.65 61.46 232.69 48 234.02C48 234.02 67.48 238.18 67.96 241.87L69.73 240.65Z" fill="#166534"/>
<path d="M101.63 229.71C101.63 229.71 117.08 229.33 114.97 243.73C114.97 243.73 103.42 246.79 101.63 229.71Z" fill="#41B035"/>
<path d="M116.05 244.81C116.05 244.81 113.42 237.21 104.6 233.76C104.6 233.76 115.43 242.56 114.56 245.01L116.05 244.81Z" fill="#166534"/>
<path d="M77.34 260.32C77.34 260.32 86.37 255.43 89.47 264.59C89.47 264.6 83.56 269.89 77.34 260.32Z" fill="#41B035"/>
<path d="M90.4299 264.911C90.4299 264.911 86.5799 261.211 80.3199 261.831C80.3199 261.831 89.3899 263.771 89.6099 265.481L90.4299 264.911Z" fill="#166534"/>
<path d="M99.61 242.19C99.61 242.19 116.88 243.48 112.93 259.31C112.93 259.31 99.71 261.44 99.61 242.19Z" fill="#41B035"/>
<path d="M114.01 260.63C114.01 260.63 111.92 251.87 102.48 247.04C102.48 247.04 113.58 258.05 112.33 260.69L114.01 260.63Z" fill="#166534"/>
<path d="M90.43 258.38C90.43 258.38 110 252.71 112.14 271.78C112.14 271.77 98.45 279.55 90.43 258.38Z" fill="#41B035"/>
<path d="M113.88 272.78C113.88 272.78 107.98 263.98 95.59 262.54C95.59 262.54 112.34 270.12 112.06 273.53L113.88 272.78Z" fill="#166534"/>
<path d="M87.89 200.681C87.89 200.681 116.6 199.971 112.68 226.741C112.68 226.741 91.22 232.421 87.89 200.681Z" fill="#41B035"/>
<path d="M114.68 228.73C114.68 228.73 109.8 214.62 93.41 208.2C93.41 208.2 113.53 224.55 111.91 229.1L114.68 228.73Z" fill="#166534"/>
<path d="M101.2 189.74C101.2 189.74 118.47 191.03 114.52 206.86C114.52 206.86 101.3 208.99 101.2 189.74Z" fill="#41B035"/>
<path d="M115.6 208.18C115.6 208.18 113.51 199.42 104.07 194.59C104.07 194.59 115.17 205.6 113.92 208.24L115.6 208.18Z" fill="#166534"/>
<path d="M91.11 171.34C91.11 171.34 113.9 166.15 115.07 188.14C115.07 188.14 98.87 196.13 91.11 171.34Z" fill="#41B035"/>
<path d="M116.99 189.41C116.99 189.41 110.82 178.94 96.72 176.46C96.72 176.46 115.4 186.26 114.84 190.15L116.99 189.41Z" fill="#166534"/>
<path d="M55.66 208.62C55.66 208.62 95.31 199.01 97.9 237.35C97.9 237.35 69.82 251.69 55.66 208.62Z" fill="#41B035"/>
<path d="M101.29 239.52C101.29 239.52 90.27 221.39 65.6 217.41C65.6 217.41 98.44 234.06 97.57 240.87L101.29 239.52Z" fill="#166534"/>
<path d="M67.26 245.25C67.26 245.25 86.89 232.32 95.76 252.61C95.76 252.61 83.31 265.85 67.26 245.25Z" fill="#41B035"/>
<path d="M98.01 253.13C98.01 253.13 88.51 245.44 74.35 248.08C74.35 248.08 95.4 250.72 96.25 254.58L98.01 253.13Z" fill="#166534"/>
<path d="M69.94 252.601C69.94 252.601 77 253.931 74.64 260.271C74.64 260.271 69.1 260.541 69.94 252.601Z" fill="#41B035"/>
<path d="M75.03 260.86C75.03 260.86 74.57 257.15 70.9 254.73C70.9 254.73 74.97 259.78 74.34 260.81L75.03 260.86Z" fill="#166534"/>
<path d="M95.82 149.021C95.82 149.021 119.18 149.721 114.8 171.291C114.8 171.291 97.11 174.961 95.82 149.021Z" fill="#41B035"/>
<path d="M116.34 173C116.34 173 113 161.32 99.97 155.37C99.97 155.37 115.59 169.54 114.07 173.17L116.34 173Z" fill="#166534"/>
<path d="M50.1 164.221C50.1 164.221 90.85 166.111 82.59 203.641C82.59 203.641 51.61 209.531 50.1 164.221Z" fill="#41B035"/>
<path d="M85.23 206.67C85.23 206.67 79.73 186.18 57.17 175.44C57.17 175.44 84.03 200.63 81.28 206.92L85.23 206.67Z" fill="#166534"/>
<path d="M85.47 181.53C85.47 181.53 100.82 183.2 96.82 197.18C96.83 197.18 84.99 198.68 85.47 181.53Z" fill="#41B035"/>
<path d="M97.75 198.391C97.75 198.391 96.15 190.521 87.88 185.931C87.88 185.931 97.44 196.071 96.25 198.391H97.75Z" fill="#166534"/>
<path d="M52.71 118.09C52.71 118.09 98.59 120.22 89.29 162.47C89.29 162.47 54.41 169.1 52.71 118.09Z" fill="#41B035"/>
<path d="M92.26 165.88C92.26 165.88 86.07 142.81 60.66 130.72C60.66 130.72 90.9 159.08 87.8 166.16L92.26 165.88Z" fill="#166534"/>
<path d="M76.05 165.191C76.05 165.191 91.69 164.011 90.29 178.711C90.28 178.711 78.74 182.401 76.05 165.191Z" fill="#41B035"/>
<path d="M91.43 179.741C91.43 179.741 88.38 172.181 79.26 169.131C79.26 169.131 90.68 177.491 89.93 180.021L91.43 179.741Z" fill="#166534"/>
<path d="M17.58 182.54C17.58 182.54 58.33 184.43 50.07 221.96C50.07 221.96 19.09 227.85 17.58 182.54Z" fill="#41B035"/>
<path d="M52.71 224.99C52.71 224.99 47.21 204.5 24.65 193.76C24.65 193.76 51.51 218.95 48.76 225.24L52.71 224.99Z" fill="#166534"/>
<path d="M48.16 190.21C48.16 190.21 63.51 191.88 59.51 205.86C59.52 205.87 47.68 207.37 48.16 190.21Z" fill="#41B035"/>
<path d="M60.44 207.07C60.44 207.07 58.84 199.2 50.57 194.61C50.57 194.61 60.13 204.75 58.94 207.07H60.44Z" fill="#166534"/>
<path d="M87.62 121.021C87.62 121.021 110.56 125.5 102.73 146.08C102.73 146.08 84.68 146.831 87.62 121.021Z" fill="#41B035"/>
<path d="M103.97 148.021C103.97 148.021 102.57 135.951 90.68 127.971C90.68 127.971 103.79 144.491 101.71 147.831L103.97 148.021Z" fill="#166534"/>
<path d="M8.63 149.01C8.63 149.01 49.16 144.36 47 182.73C47.01 182.73 17.37 193.5 8.63 149.01Z" fill="#41B035"/>
<path d="M50.1 185.3C50.1 185.3 41.4 165.95 17.41 158.95C17.41 158.95 47.95 179.52 46.24 186.17L50.1 185.3Z" fill="#166534"/>
<path d="M31.4 132.961C31.4 132.961 60.11 132.251 56.19 159.021C56.19 159.021 34.73 164.701 31.4 132.961Z" fill="#41B035"/>
<path d="M58.19 161.01C58.19 161.01 53.31 146.9 36.92 140.48C36.92 140.48 57.04 156.83 55.42 161.38L58.19 161.01Z" fill="#166534"/>
<path d="M67.99 159.96C67.99 159.96 76.88 161.63 73.91 169.62C73.91 169.62 66.93 169.96 67.99 159.96Z" fill="#41B035"/>
<path d="M74.4 170.37C74.4 170.37 73.82 165.7 69.2 162.65C69.2 162.65 74.32 169.01 73.53 170.31L74.4 170.37Z" fill="#166534"/>
<path d="M60.72 155.11C60.72 155.11 69.22 158.22 64.97 165.61C64.97 165.61 58.02 164.79 60.72 155.11Z" fill="#41B035"/>
<path d="M65.33 166.42C65.33 166.42 65.53 161.72 61.47 157.95C61.47 157.95 65.48 165.07 64.48 166.21L65.33 166.42Z" fill="#166534"/>
<path d="M26.32 98.0303C26.32 98.0303 52.21 101.23 49.98 132.24C49.98 132.24 40.09 137.73 26.35 107.42C26.35 107.42 23.01 97.5103 22.08 99.1903C22.09 99.2003 22.55 98.1103 26.32 98.0303Z" fill="#41B035"/>
<path d="M32 104.931C32 104.931 45.54 116.741 51.76 135.211L50.45 135.921C50.44 135.931 47.51 124.791 32 104.931Z" fill="#166534"/>
<path d="M18.06 132.051C18.06 132.051 30.73 133.481 29.79 148.651C29.79 148.651 24.98 151.381 18.12 136.641C18.12 136.641 16.44 131.821 15.99 132.641C16 132.641 16.22 132.111 18.06 132.051Z" fill="#41B035"/>
<path d="M20.87 135.391C20.87 135.391 27.55 141.091 30.68 150.091L30.04 150.451C30.04 150.451 28.55 145.021 20.87 135.391Z" fill="#166534"/>
<path d="M13.73 108.17C13.73 108.17 33.67 112.07 26.87 129.96C26.87 129.95 11.18 130.6 13.73 108.17Z" fill="#41B035"/>
<path d="M27.95 131.64C27.95 131.64 26.73 121.14 16.4 114.21C16.4 114.21 27.8 128.58 25.99 131.48L27.95 131.64Z" fill="#166534"/>
<path d="M8.03003 136.901C8.03003 136.901 19.05 136.071 18.06 146.431C18.06 146.431 9.93003 149.031 8.03003 136.901Z" fill="#41B035"/>
<path d="M18.87 147.16C18.87 147.16 16.72 141.83 10.3 139.69C10.3 139.69 18.3501 145.58 17.8201 147.36L18.87 147.16Z" fill="#166534"/>
<path d="M7.08998 125.511C7.08998 125.511 15.98 127.181 13.01 135.171C13.01 135.171 6.02998 135.511 7.08998 125.511Z" fill="#41B035"/>
<path d="M13.5 135.921C13.5 135.921 12.92 131.251 8.29999 128.201C8.29999 128.201 13.42 134.561 12.63 135.861L13.5 135.921Z" fill="#166534"/>
<path d="M59.81 73.53C59.81 73.53 90.34 83.77 80.01 120.72C80.01 120.72 66.7 124.93 57.55 84.89C57.55 84.89 55.95 72.09 54.41 73.89C54.4 73.9 55.22 72.7 59.81 73.53Z" fill="#41B035"/>
<path d="M64.97 83.2695C64.97 83.2695 78.44 100.88 81.41 124.75L79.65 125.29C79.66 125.29 78.84 111.1 64.97 83.2695Z" fill="#166534"/>
<path d="M40.98 83.87C40.98 83.87 62.46 88.27 58.53 114.11C58.53 114.11 49.88 118.05 40.39 91.74C40.39 91.74 38.25 83.22 37.36 84.56C37.36 84.57 37.81 83.69 40.98 83.87Z" fill="#41B035"/>
<path d="M45.27 90.0303C45.27 90.0303 55.83 100.83 59.81 116.72L58.66 117.23C58.67 117.23 56.95 107.7 45.27 90.0303Z" fill="#166534"/>
<path d="M85.41 101.73C85.41 101.73 102.23 105.02 96.49 120.11C96.49 120.11 83.26 120.65 85.41 101.73Z" fill="#41B035"/>
<path d="M97.41 121.53C97.41 121.53 96.38 112.68 87.67 106.83C87.67 106.83 97.29 118.95 95.76 121.39L97.41 121.53Z" fill="#166534"/>
<path d="M83.34 84.9902C83.34 84.9902 96.63 89.2102 90.59 100.87C90.59 100.88 79.84 100.09 83.34 84.9902Z" fill="#41B035"/>
<path d="M91.19 102.11C91.19 102.11 91.18 94.8603 84.68 89.3203C84.68 89.3203 91.33 100.01 89.86 101.84L91.19 102.11Z" fill="#166534"/>
<path d="M66.31 61.7705C66.31 61.7705 89.68 62.0505 85.68 83.7005C85.69 83.7105 68.07 87.6905 66.31 61.7705Z" fill="#41B035"/>
<path d="M87.26 85.3905C87.26 85.3905 83.71 73.7705 70.58 68.0605C70.58 68.0605 86.45 81.9506 85 85.6105L87.26 85.3905Z" fill="#166534"/>
<path d="M23.83 77.3398C23.83 77.3398 40.65 80.6298 34.91 95.7198C34.91 95.7198 21.67 96.2598 23.83 77.3398Z" fill="#41B035"/>
<path d="M35.82 97.1395C35.82 97.1395 34.79 88.2895 26.08 82.4395C26.08 82.4395 35.7 94.5595 34.17 96.9995L35.82 97.1395Z" fill="#166534"/>
<path d="M36.35 59.1104C36.35 59.1104 58.45 63.4303 50.91 83.2603C50.91 83.2603 33.52 83.9804 36.35 59.1104Z" fill="#41B035"/>
<path d="M52.1 85.1306C52.1 85.1306 50.75 73.5005 39.3 65.8105C39.3 65.8105 51.93 81.7305 49.92 84.9505L52.1 85.1306Z" fill="#166534"/>
<path d="M14.61 97.0508C14.61 97.0508 25.57 98.4508 22.52 108.401C22.52 108.401 14.03 109.311 14.61 97.0508Z" fill="#41B035"/>
<path d="M23.16 109.27C23.16 109.27 22.13 103.62 16.27 100.23C16.27 100.23 22.97 107.62 22.09 109.25L23.16 109.27Z" fill="#166534"/>
<path d="M17.57 88.1602C17.57 88.1602 26.06 89.2501 23.69 96.9501C23.69 96.9501 17.12 97.6602 17.57 88.1602Z" fill="#41B035"/>
<path d="M24.19 97.6299C24.19 97.6299 23.39 93.2499 18.85 90.6299C18.85 90.6299 24.04 96.3499 23.35 97.6199L24.19 97.6299Z" fill="#166534"/>
<path d="M93.56 33.7002C93.56 33.7002 120.72 43.7802 107.03 67.3902C107.03 67.3902 84.8 64.6802 93.56 33.7002Z" fill="#41B035"/>
<path d="M108.16 70.0103C108.16 70.0103 108.87 54.9603 95.92 42.8203C95.92 42.8203 108.65 65.6603 105.43 69.3203L108.16 70.0103Z" fill="#166534"/>
<path d="M70.94 43.25C70.94 43.25 94.31 43.53 90.31 65.18C90.32 65.18 72.7 69.16 70.94 43.25Z" fill="#41B035"/>
<path d="M91.89 66.8603C91.89 66.8603 88.34 55.2403 75.21 49.5303C75.21 49.5303 91.08 63.4203 89.63 67.0803L91.89 66.8603Z" fill="#166534"/>
<path d="M101.77 18.8203C101.77 18.8203 119.52 25.2003 110.76 40.6603C110.76 40.6603 96.27 39.0403 101.77 18.8203Z" fill="#41B035"/>
<path d="M111.51 42.3505C111.51 42.3505 111.87 32.5505 103.36 24.7305C103.36 24.7305 111.8 39.5105 109.72 41.9205L111.51 42.3505Z" fill="#166534"/>
<path d="M106.98 11.6804C106.98 11.6804 117.7 14.1304 114.77 24.7004C114.77 24.7004 110.25 26.0804 106.39 14.9204C106.39 14.9204 105.61 11.3304 105.12 11.8604C105.12 11.8604 105.38 11.5104 106.98 11.6804Z" fill="#41B035"/>
<path d="M108.93 14.3506C108.93 14.3506 113.89 19.1306 115.33 25.8106L114.73 25.9906C114.74 26.0006 114.21 22.0006 108.93 14.3506Z" fill="#166534"/>
<path d="M48.05 47.1299C48.05 47.1299 68.72 50.6399 61.15 69.3999C61.15 69.3999 44.79 70.4899 48.05 47.1299Z" fill="#41B035"/>
<path d="M62.23 71.1201C62.23 71.1201 61.24 60.2601 50.66 53.3301C50.66 53.3301 62.15 67.9401 60.18 71.0001L62.23 71.1201Z" fill="#166534"/>
<path d="M77.81 23.2305C77.81 23.2305 95.31 28.6605 87.47 44.0405C87.46 44.0405 73.34 43.0905 77.81 23.2305Z" fill="#41B035"/>
<path d="M88.27 45.6504C88.27 45.6504 88.2 36.1204 79.61 28.9004C79.61 28.9004 88.43 42.8904 86.52 45.3104L88.27 45.6504Z" fill="#166534"/>
<path d="M63.11 43.4502C63.11 43.4502 75.34 48.5002 68.7 59.0502C68.7 59.0502 58.6 57.4402 63.11 43.4502Z" fill="#41B035"/>
<path d="M69.17 60.2606C69.17 60.2606 69.74 53.4006 64.04 47.6406C64.04 47.6406 69.47 58.2806 67.94 59.9006L69.17 60.2606Z" fill="#166534"/>
<path d="M54.14 39.1201C54.14 39.1201 63.03 40.7901 60.06 48.7801C60.06 48.7801 53.08 49.1201 54.14 39.1201Z" fill="#41B035"/>
<path d="M60.55 49.5305C60.55 49.5305 59.97 44.8605 55.35 41.8105C55.35 41.8105 60.47 48.1706 59.68 49.4706L60.55 49.5305Z" fill="#166534"/>
<path d="M61.76 33.04C61.76 33.04 70.65 34.71 67.68 42.7C67.68 42.7 60.7 43.04 61.76 33.04Z" fill="#41B035"/>
<path d="M68.17 43.4505C68.17 43.4505 67.59 38.7805 62.97 35.7305C62.97 35.7305 68.09 42.0905 67.3 43.3905L68.17 43.4505Z" fill="#166534"/>
<path d="M69.98 32.0801C69.98 32.0801 78.87 33.7501 75.9 41.7401C75.91 41.7301 68.92 42.0701 69.98 32.0801Z" fill="#41B035"/>
<path d="M76.39 42.4798C76.39 42.4798 75.81 37.8098 71.19 34.7598C71.19 34.7598 76.31 41.1198 75.52 42.4198L76.39 42.4798Z" fill="#166534"/>
<path d="M89.64 18.5508C89.64 18.5508 102.36 20.9408 98.11 32.3708C98.12 32.3708 88.12 32.8608 89.64 18.5508Z" fill="#41B035"/>
<path d="M98.81 33.4406C98.81 33.4406 97.98 26.7606 91.37 22.3906C91.37 22.3906 98.7 31.4906 97.56 33.3406L98.81 33.4406Z" fill="#166534"/>
</svg>
