<svg width="35" height="35" viewBox="0 0 35 35" fill="none" xmlns="http://www.w3.org/2000/svg">
<path d="M25.6866 22.6258C27.8047 19.7351 28.7534 16.1512 28.3428 12.591C27.9323 9.03083 26.1928 5.75697 23.4724 3.4244C20.7521 1.09182 17.2514 -0.127433 13.6708 0.0105538C10.0902 0.148541 6.69368 1.6336 4.16083 4.16861C1.62798 6.70363 0.145569 10.1017 0.0101639 13.6829C-0.125241 17.2641 1.09635 20.7644 3.43054 23.4835C5.76473 26.2026 9.03938 27.9399 12.5993 28.348C16.1593 28.756 19.7421 27.8047 22.6308 25.6842H22.6286C22.6942 25.7717 22.7642 25.8549 22.843 25.9358L31.2645 34.3586C31.6747 34.7691 32.2311 34.9998 32.8114 35C33.3916 35.0002 33.9482 34.7699 34.3586 34.3596C34.7691 33.9494 34.9998 33.3929 35 32.8126C35.0002 32.2323 34.7699 31.6756 34.3597 31.2651L25.9382 22.8424C25.86 22.7632 25.7759 22.6901 25.6866 22.6236V22.6258ZM26.251 14.2162C26.251 15.7963 25.9398 17.361 25.3352 18.8208C24.7306 20.2806 23.8444 21.6071 22.7272 22.7244C21.6101 23.8417 20.2838 24.728 18.8242 25.3327C17.3645 25.9374 15.8001 26.2487 14.2202 26.2487C12.6403 26.2487 11.0758 25.9374 9.61619 25.3327C8.15655 24.728 6.83028 23.8417 5.71312 22.7244C4.59596 21.6071 3.70978 20.2806 3.10517 18.8208C2.50057 17.361 2.18938 15.7963 2.18938 14.2162C2.18938 11.025 3.45691 7.96444 5.71312 5.70791C7.96933 3.45138 11.0294 2.18367 14.2202 2.18367C17.4109 2.18367 20.471 3.45138 22.7272 5.70791C24.9835 7.96444 26.251 11.025 26.251 14.2162Z" fill="#F4EBDC"/>
</svg>
