<svg width="37" height="35" viewBox="0 0 37 35" fill="none" xmlns="http://www.w3.org/2000/svg">
<path d="M0 1.25C0 0.918479 0.129473 0.600537 0.359937 0.366117C0.5904 0.131696 0.902976 0 1.2289 0H4.9156C5.18972 7.70287e-05 5.45595 0.0933767 5.67194 0.265062C5.88794 0.436747 6.0413 0.67696 6.10763 0.9475L7.10304 5H35.6381C35.8248 5.00005 36.009 5.04336 36.1767 5.12663C36.3445 5.20991 36.4914 5.33096 36.6063 5.4806C36.7212 5.63024 36.8011 5.80454 36.8398 5.99027C36.8786 6.176 36.8753 6.36827 36.8301 6.5525L33.1434 21.5525C33.0771 21.823 32.9237 22.0633 32.7078 22.2349C32.4918 22.4066 32.2255 22.4999 31.9514 22.5H9.8312C9.55708 22.4999 9.29085 22.4066 9.07486 22.2349C8.85887 22.0633 8.70551 21.823 8.63917 21.5525L3.95706 2.5H1.2289C0.902976 2.5 0.5904 2.3683 0.359937 2.13388C0.129473 1.89946 0 1.58152 0 1.25ZM7.71749 7.5L8.94639 12.5H12.289V7.5H7.71749ZM14.7468 7.5V12.5H19.6624V7.5H14.7468ZM22.1202 7.5V12.5H27.0358V7.5H22.1202ZM29.4936 7.5V12.5H32.8362L34.0651 7.5H29.4936ZM32.2218 15H29.4936V20H30.9929L32.2218 15ZM27.0358 15H22.1202V20H27.0358V15ZM19.6624 15H14.7468V20H19.6624V15ZM12.289 15H9.56084L10.7897 20H12.289V15ZM12.289 27.5C11.6372 27.5 11.012 27.7634 10.5511 28.2322C10.0901 28.7011 9.8312 29.337 9.8312 30C9.8312 30.663 10.0901 31.2989 10.5511 31.7678C11.012 32.2366 11.6372 32.5 12.289 32.5C12.9409 32.5 13.566 32.2366 14.0269 31.7678C14.4879 31.2989 14.7468 30.663 14.7468 30C14.7468 29.337 14.4879 28.7011 14.0269 28.2322C13.566 27.7634 12.9409 27.5 12.289 27.5ZM7.3734 30C7.3734 28.6739 7.89129 27.4021 8.81315 26.4645C9.735 25.5268 10.9853 25 12.289 25C13.5927 25 14.843 25.5268 15.7649 26.4645C16.6867 27.4021 17.2046 28.6739 17.2046 30C17.2046 31.3261 16.6867 32.5979 15.7649 33.5355C14.843 34.4732 13.5927 35 12.289 35C10.9853 35 9.735 34.4732 8.81315 33.5355C7.89129 32.5979 7.3734 31.3261 7.3734 30ZM29.4936 27.5C28.8418 27.5 28.2166 27.7634 27.7557 28.2322C27.2948 28.7011 27.0358 29.337 27.0358 30C27.0358 30.663 27.2948 31.2989 27.7557 31.7678C28.2166 32.2366 28.8418 32.5 29.4936 32.5C30.1455 32.5 30.7706 32.2366 31.2315 31.7678C31.6925 31.2989 31.9514 30.663 31.9514 30C31.9514 29.337 31.6925 28.7011 31.2315 28.2322C30.7706 27.7634 30.1455 27.5 29.4936 27.5ZM24.578 30C24.578 28.6739 25.0959 27.4021 26.0178 26.4645C26.9396 25.5268 28.1899 25 29.4936 25C30.7973 25 32.0476 25.5268 32.9695 26.4645C33.8913 27.4021 34.4092 28.6739 34.4092 30C34.4092 31.3261 33.8913 32.5979 32.9695 33.5355C32.0476 34.4732 30.7973 35 29.4936 35C28.1899 35 26.9396 34.4732 26.0178 33.5355C25.0959 32.5979 24.578 31.3261 24.578 30Z" fill="#E9E3DA"/>
</svg>
