<?xml version="1.0" encoding="utf-8"?>
<!-- Generator: Adobe Illustrator 25.2.1, SVG Export Plug-In . SVG Version: 6.00 Build 0)  -->
<svg version="1.1" id="圖層_1" xmlns="http://www.w3.org/2000/svg" xmlns:xlink="http://www.w3.org/1999/xlink" x="0px" y="0px"
	 viewBox="0 0 595.28 841.89" style="enable-background:new 0 0 595.28 841.89;" xml:space="preserve">
<style type="text/css">
	.st0{fill:none;stroke:#000000;stroke-miterlimit:10;}
	.st1{fill:#5FB630;}
	.st2{fill:#BA5D2E;}
	.st3{fill:#9AAC87;}
	.st4{fill:#C7D5B3;}
	.st5{fill:#DBE0D8;}
	.st6{fill:#40AF36;}
	.st7{fill:#14502A;}
	.st8{fill:#B4691F;}
	.st9{fill:#F7CB5E;}
	.st10{fill:#944B23;}
	.st11{fill:url(#SVGID_1_);}
	.st12{fill:url(#SVGID_2_);}
	.st13{fill:#8E5123;}
	.st14{fill:#40220D;}
	.st15{fill:#B46520;}
	.st16{fill:#74321C;}
	.st17{fill:#FFFFFF;}
	.st18{fill:#C7E8F6;}
</style>
<line class="st0" x1="93.11" y1="601.93" x2="93.15" y2="601.86"/>
<g>
	<ellipse class="st1" cx="206.52" cy="493.26" rx="22.74" ry="15.51"/>
	<path class="st2" d="M301.75,493.33l-23,13.54c-0.98,0.57-2.21-0.12-2.22-1.25l-0.22-26.69c-0.01-1.13,1.21-1.85,2.19-1.29
		l23.22,13.15C302.71,491.34,302.72,492.75,301.75,493.33z"/>
	<path class="st3" d="M301.72,524.82l-23,13.54c-0.98,0.57-2.21-0.12-2.22-1.25l-0.22-26.69c-0.01-1.13,1.21-1.85,2.19-1.29
		l23.22,13.15C302.69,522.83,302.7,524.25,301.72,524.82z"/>
	<path class="st4" d="M302,556.31l-23,13.54c-0.97,0.57-2.21-0.12-2.22-1.25l-0.22-26.69c-0.01-1.13,1.21-1.85,2.19-1.29
		l23.22,13.15C302.96,554.33,302.97,555.74,302,556.31z"/>
	<path class="st5" d="M357.54,505.23l0.84,4.46c0.13,0.7,0.84,0.96,1.27,0.47l10.14-11.61c0.43-0.49,0.26-1.37-0.3-1.58l-13.28-4.95
		c-0.56-0.21-1.1,0.41-0.97,1.11l0.89,4.68l-14.46,5.26v-12.56l15.72-5.8l0.64-8.15l-44.35,16.14l-0.96-5.07
		c-0.13-0.7-0.84-0.96-1.27-0.47l-10.14,11.61c-0.43,0.49-0.26,1.37,0.3,1.58l13.28,4.95c0.56,0.21,1.1-0.41,0.97-1.11l-0.74-3.88
		l19.42-7.17v12.53l-19.44,7.07l-0.72,8.42l20.16-7.44v14.89c-2.94,0.29-6.16,0.76-9.72,1.46l3.77,7.66l13.4,0.04
		c0,0,22.9,9.22,0.89,23.5h-21v-17.27h1.89c1.32,0,2.15-1.58,1.49-2.84L319,529.2c-0.66-1.26-2.32-1.26-2.98,0l-6.26,11.95
		c-0.66,1.26,0.17,2.84,1.49,2.84h1.87v26.59h8.77v-0.03h25.2c0,0,19.31-6.57,15.67-26.31c0,0-1.21-13.64-21.09-15.97v-17.18
		L357.54,505.23z"/>
	<g>
		<path class="st6" d="M502.29,521.6c0,0-12.81-0.47-17.57,9.78c0,0-1.02,4.33-4.64,7.36c0,0,17.82-3.23,21.27-16.18
			C501.35,522.56,501.79,521.89,502.29,521.6z"/>
		<path class="st7" d="M497.37,527.61c0,0-6.07-0.96-9.38,4.43c0,0-0.51,2.59-10.43,7.51l0.71,1.58c0,0,8.96-6.56,10.11-8.17
			C488.38,532.96,489.28,529.04,497.37,527.61z"/>
	</g>
	<g>
		<g>
			<path class="st8" d="M458.1,513.1h-82.28c-0.33,0-0.61-0.27-0.61-0.61v-4.09c0-0.33,0.27-0.61,0.61-0.61h82.28
				c0.33,0,0.61,0.27,0.61,0.61v4.09C458.71,512.83,458.44,513.1,458.1,513.1z"/>
			<ellipse class="st9" cx="375.56" cy="510.45" rx="1.21" ry="2.65"/>
			<path class="st8" d="M374.73,508.82c0,0-0.67,2.05,0.13,3.46c0,0,0.49,1.06,0.96,0.4c0,0,0.86-1.02,0.57-3.32
				c0,0-0.54-2.15-1.36-0.54c0,0-0.6,2.05,0.17,3.4c0,0,0.45,1.21,0.92-1.93c0,0,0.11-1.83-0.74-1.23c0,0-0.42,0.75-0.17,1.5
				c0,0,0,0.34-0.11,0.04c0,0-0.22-0.92,0.17-1.6c0,0,0.48-0.66,0.88,0.26c0,0,0.39,2.83-0.8,3.3c0,0-1.01-0.25-0.46-3.8
				c0,0,0.18-0.76,0.96-0.67c0,0,1.17,0.66,0.53,3.48"/>
		</g>
		<path class="st10" d="M386.99,509.11c0,0.17,0.17,0.3,0.38,0.3h9.26v0c0.21,0,0.37-0.13,0.37-0.3c0-0.17-0.17-0.3-0.37-0.3v0
			h-9.26C387.16,508.81,386.99,508.94,386.99,509.11z"/>
		<path class="st10" d="M395.83,510.49c0,0.17,0.17,0.3,0.38,0.3h9.26v0c0.21,0,0.37-0.13,0.37-0.3s-0.17-0.3-0.37-0.3v0h-9.26
			C395.99,510.19,395.83,510.32,395.83,510.49z"/>
		<path class="st10" d="M385.23,510.18c0,0.17,0.17,0.3,0.38,0.3h9.26v0c0.21,0,0.37-0.13,0.37-0.3s-0.17-0.3-0.37-0.3v0h-9.26
			C385.4,509.88,385.23,510.02,385.23,510.18z"/>
		<path class="st10" d="M386.99,511.59c0,0.22,0.23,0.4,0.5,0.4h12.44v0c0.28,0,0.5-0.18,0.5-0.4s-0.22-0.4-0.5-0.4v0H387.5
			C387.22,511.19,386.99,511.37,386.99,511.59z"/>
		<path class="st10" d="M397.9,508.62c0,0.2,0.17,0.36,0.38,0.36h9.26v0c0.21,0,0.37-0.16,0.37-0.36c0-0.2-0.17-0.35-0.37-0.36v0
			h-9.26C398.07,508.26,397.9,508.42,397.9,508.62z"/>
		<path class="st10" d="M403.81,509.58c0,0.17,0.17,0.3,0.38,0.3h9.26v0c0.21,0,0.37-0.13,0.37-0.3c0-0.17-0.17-0.3-0.37-0.3v0
			h-9.26C403.98,509.28,403.81,509.41,403.81,509.58z"/>
		<path class="st10" d="M403.22,512.39c0,0.17,0.17,0.3,0.38,0.3h9.26v0c0.21,0,0.37-0.13,0.37-0.3c0-0.16-0.17-0.3-0.37-0.3v0
			h-9.26C403.39,512.09,403.22,512.23,403.22,512.39z"/>
		<path class="st10" d="M408.82,511.19c0,0.17,0.17,0.3,0.38,0.3h9.26v0c0.21,0,0.37-0.13,0.37-0.3s-0.17-0.3-0.37-0.3v0h-9.26
			C408.99,510.89,408.82,511.02,408.82,511.19z"/>
		<path class="st10" d="M415.3,508.67c0,0.22,0.26,0.41,0.57,0.41h14.15v0c0.32,0,0.57-0.18,0.57-0.41s-0.26-0.41-0.57-0.41v0
			h-14.15C415.56,508.26,415.3,508.44,415.3,508.67z"/>
		<path class="st10" d="M415.89,509.98c0,0.17,0.17,0.3,0.38,0.3h9.26v0c0.21,0,0.37-0.13,0.37-0.3s-0.17-0.3-0.37-0.3v0h-9.26
			C416.05,509.68,415.89,509.82,415.89,509.98z"/>
		<path class="st10" d="M416.57,512.09c0,0.17,0.17,0.3,0.38,0.3h9.26v0c0.21,0,0.37-0.13,0.37-0.3c0-0.17-0.17-0.3-0.37-0.3v0
			h-9.26C416.74,511.79,416.57,511.93,416.57,512.09z"/>
		<path class="st10" d="M420.89,510.91c0,0.17,0.17,0.3,0.38,0.3h9.26v0c0.21,0,0.37-0.13,0.37-0.3s-0.17-0.3-0.37-0.3v0h-9.26
			C421.06,510.61,420.89,510.74,420.89,510.91z"/>
		<path class="st10" d="M431.52,509.58c0,0.17,0.17,0.3,0.38,0.3h9.26v0c0.21,0,0.37-0.13,0.37-0.3c0-0.17-0.17-0.3-0.37-0.3v0
			h-9.26C431.69,509.28,431.52,509.41,431.52,509.58z"/>
		<path class="st10" d="M429.11,511.87c0,0.17,0.17,0.3,0.38,0.3h9.26v0c0.21,0,0.37-0.13,0.37-0.3c0-0.17-0.17-0.3-0.37-0.3v0
			h-9.26C429.28,511.57,429.11,511.7,429.11,511.87z"/>
		<path class="st10" d="M433.73,510.61c0,0.17,0.17,0.3,0.38,0.3h9.26v0c0.21,0,0.37-0.13,0.37-0.3s-0.17-0.3-0.37-0.3v0h-9.26
			C433.9,510.31,433.73,510.44,433.73,510.61z"/>
		<path class="st10" d="M438.15,508.62c0,0.17,0.17,0.3,0.38,0.3h9.26v0c0.21,0,0.37-0.13,0.37-0.3c0-0.17-0.17-0.3-0.37-0.3v0
			h-9.26C438.32,508.32,438.15,508.45,438.15,508.62z"/>
		<path class="st10" d="M440.17,512.39c0,0.22,0.17,0.4,0.38,0.4h9.33v0c0.21,0,0.38-0.18,0.38-0.4c0-0.22-0.17-0.4-0.38-0.4v0
			h-9.33C440.34,511.99,440.17,512.17,440.17,512.39z"/>
		<path class="st10" d="M443.15,509.68c0,0.17,0.12,0.3,0.28,0.3h6.81v0c0.15,0,0.28-0.13,0.28-0.3s-0.12-0.3-0.28-0.3v0h-6.81
			C443.28,509.38,443.15,509.52,443.15,509.68z"/>
		<path class="st10" d="M445.35,511.34c0,0.17,0.08,0.3,0.18,0.3h4.55v0c0.1,0,0.18-0.13,0.18-0.3c0-0.17-0.08-0.3-0.18-0.3v0h-4.55
			C445.43,511.04,445.35,511.18,445.35,511.34z"/>
	</g>
	<linearGradient id="SVGID_1_" gradientUnits="userSpaceOnUse" x1="397.927" y1="495.9262" x2="397.4689" y2="474.1055">
		<stop  offset="0" style="stop-color:#B3312D"/>
		<stop  offset="0.6607" style="stop-color:#DC7F2D"/>
	</linearGradient>
	<path class="st11" d="M388.48,480.05c0,0,3.85,1.01-1.19,11.74c0,0-2.75,10.18,8.53,14.21c0,0-4.13-3.67,0.64-12.29
		c0,0,2.48-3.94,1.65-8.16c0,0,1.93,0-0.46,11.28c0,0-2.38,7.7,4.4,2.84c0,0,1.1-0.09,1.38-2.93c0,0,1.56-1.19,0.37,3.48
		c0,0,0.37,0.46-2.2,4.86c0,0,9.54-1.47,6.69-14.31c0,0,0.55-0.28-2.93-5.87c0,0-1.1-1.01-0.73-5.32c0,0-2.84,0.73-1.01,6.6
		c0,0,1.01,4.71-2.57,5.04c0,0,3.3-2.75-1.01-7.79c0,0-4.68-4.95-2.57-8.71l1.56-2.03c0,0-5.14,0.84-5.04,5.42
		c0,0-0.09,4.68,1.1,6.51c0,0,1.38,4.68-1.83,5.41C393.25,490.05,396.46,484,388.48,480.05z"/>
	
		<linearGradient id="SVGID_2_" gradientUnits="userSpaceOnUse" x1="-1.7352" y1="496.5558" x2="-2.1933" y2="474.7351" gradientTransform="matrix(-1 0 0 1 433.8563 0)">
		<stop  offset="0" style="stop-color:#B3312D"/>
		<stop  offset="0.6607" style="stop-color:#DC7F2D"/>
	</linearGradient>
	<path class="st12" d="M445.04,480.68c0,0-3.85,1.01,1.19,11.74c0,0,2.75,10.18-8.53,14.21c0,0,4.13-3.67-0.64-12.29
		c0,0-2.48-3.94-1.65-8.16c0,0-1.93,0,0.46,11.28c0,0,2.38,7.7-4.4,2.84c0,0-1.1-0.09-1.38-2.93c0,0-1.56-1.19-0.37,3.48
		c0,0-0.37,0.46,2.2,4.86c0,0-9.54-1.47-6.69-14.31c0,0-0.55-0.28,2.93-5.87c0,0,1.1-1.01,0.73-5.32c0,0,2.84,0.73,1.01,6.6
		c0,0-1.01,4.71,2.57,5.04c0,0-3.3-2.75,1.01-7.79c0,0,4.68-4.95,2.57-8.71l-1.56-2.03c0,0,5.14,0.84,5.04,5.42
		c0,0,0.09,4.68-1.1,6.51c0,0-1.38,4.68,1.83,5.41C440.27,490.68,437.06,484.62,445.04,480.68z"/>
	<g>
		<path class="st13" d="M384.62,515.98c0.01-0.04,0.01-0.08,0-0.12v-13.32c0-0.2-0.16-0.36-0.36-0.36h-5.39
			c-0.2,0-0.36,0.16-0.36,0.36v13.29c-0.02,0.05-0.01,0.11,0,0.17v0h0c0.01,0.03,0.01,0.06,0.02,0.09l2.42,4.19
			c0.27,0.47,0.94,0.47,1.21,0l2.42-4.19c0.02-0.03,0.02-0.06,0.02-0.09h0.01V515.98z"/>
		<path class="st14" d="M379.44,507.5c-0.11,0-0.2,0.09-0.2,0.2v4.96h0c0,0.11,0.09,0.2,0.2,0.2s0.2-0.09,0.2-0.2h0v-4.96
			C379.64,507.59,379.55,507.5,379.44,507.5z"/>
		<path class="st14" d="M380.7,507.05c-0.11,0-0.2,0.05-0.2,0.12v2.9h0c0,0.06,0.09,0.12,0.2,0.12c0.11,0,0.2-0.05,0.2-0.12h0v-2.9
			C380.9,507.1,380.81,507.05,380.7,507.05z"/>
		<path class="st14" d="M382.1,504.63c-0.11,0-0.2,0.07-0.2,0.16v4.04h0c0,0.09,0.09,0.16,0.2,0.16c0.11,0,0.2-0.07,0.2-0.16h0
			v-4.04C382.3,504.7,382.21,504.63,382.1,504.63z"/>
		<path class="st14" d="M381.7,509.84c-0.11,0-0.2,0.07-0.2,0.16v4.04h0c0,0.09,0.09,0.16,0.2,0.16c0.11,0,0.2-0.07,0.2-0.16h0V510
			C381.9,509.91,381.81,509.84,381.7,509.84z"/>
		<path class="st14" d="M383.3,508.26c-0.11,0-0.2,0.07-0.2,0.16v4.04h0c0,0.09,0.09,0.16,0.2,0.16s0.2-0.07,0.2-0.16h0v-4.04
			C383.51,508.33,383.42,508.26,383.3,508.26z"/>
		<path class="st14" d="M379.94,502.76c-0.11,0-0.2,0.07-0.2,0.16v4.04h0c0,0.09,0.09,0.16,0.2,0.16c0.11,0,0.2-0.07,0.2-0.16h0
			v-4.04C380.14,502.84,380.05,502.76,379.94,502.76z"/>
		<path class="st14" d="M380.07,511.59c-0.11,0-0.2,0.05-0.2,0.12v2.9h0c0,0.06,0.09,0.12,0.2,0.12c0.11,0,0.2-0.05,0.2-0.12h0v-2.9
			C380.27,511.64,380.18,511.59,380.07,511.59z"/>
		<path class="st14" d="M382.5,512.02c-0.11,0-0.2,0.05-0.2,0.12v2.87h0c0,0.06,0.09,0.12,0.2,0.12s0.2-0.05,0.2-0.12h0v-2.87
			C382.7,512.07,382.61,512.02,382.5,512.02z"/>
		<path class="st14" d="M380.9,510.89c-0.11,0-0.2,0.07-0.2,0.16v4.04h0c0,0.09,0.09,0.16,0.2,0.16s0.2-0.07,0.2-0.16h0v-4.04
			C381.1,510.96,381.01,510.89,380.9,510.89z"/>
		<path class="st14" d="M383.1,502.91c-0.11,0-0.2,0.07-0.2,0.16v4.04h0c0,0.09,0.09,0.16,0.2,0.16c0.11,0,0.2-0.07,0.2-0.16h0
			v-4.04C383.3,502.98,383.21,502.91,383.1,502.91z"/>
		<path class="st14" d="M381.02,503.39c-0.11,0-0.2,0.05-0.2,0.1v2.57h0c0,0.06,0.09,0.1,0.2,0.1s0.2-0.05,0.2-0.1h0v-2.57
			C381.22,503.44,381.13,503.39,381.02,503.39z"/>
		<path class="st15" d="M380.9,520.32l-2.29-3.75c-0.32-0.52,0.06-1.19,0.67-1.19h4.57c0.61,0,0.98,0.67,0.67,1.19l-2.29,3.75
			C381.93,520.82,381.2,520.82,380.9,520.32z"/>
	</g>
	<g>
		<path class="st13" d="M457.44,516.44c0.01-0.04,0.01-0.08,0-0.12V503c0-0.2-0.16-0.36-0.36-0.36h-5.39c-0.2,0-0.36,0.16-0.36,0.36
			v13.29c-0.02,0.05-0.01,0.11,0,0.17v0h0c0.01,0.03,0.01,0.06,0.02,0.09l2.42,4.19c0.27,0.47,0.94,0.47,1.21,0l2.42-4.19
			c0.02-0.03,0.02-0.06,0.02-0.09h0.01V516.44z"/>
		<path class="st14" d="M452.26,507.96c-0.11,0-0.2,0.09-0.2,0.2v4.96h0c0,0.11,0.09,0.2,0.2,0.2s0.2-0.09,0.2-0.2h0v-4.96
			C452.46,508.05,452.37,507.96,452.26,507.96z"/>
		<path class="st14" d="M453.52,507.5c-0.11,0-0.2,0.05-0.2,0.12v2.9h0c0,0.06,0.09,0.12,0.2,0.12c0.11,0,0.2-0.05,0.2-0.12h0v-2.9
			C453.72,507.56,453.63,507.5,453.52,507.5z"/>
		<path class="st14" d="M454.92,505.08c-0.11,0-0.2,0.07-0.2,0.16v4.04h0c0,0.09,0.09,0.16,0.2,0.16c0.11,0,0.2-0.07,0.2-0.16h0
			v-4.04C455.12,505.16,455.03,505.08,454.92,505.08z"/>
		<path class="st14" d="M454.52,510.29c-0.11,0-0.2,0.07-0.2,0.16v4.04h0c0,0.09,0.09,0.16,0.2,0.16c0.11,0,0.2-0.07,0.2-0.16h0
			v-4.04C454.72,510.36,454.63,510.29,454.52,510.29z"/>
		<path class="st14" d="M456.13,508.71c-0.11,0-0.2,0.07-0.2,0.16v4.04h0c0,0.09,0.09,0.16,0.2,0.16c0.11,0,0.2-0.07,0.2-0.16h0
			v-4.04C456.33,508.79,456.24,508.71,456.13,508.71z"/>
		<path class="st14" d="M452.76,503.22c-0.11,0-0.2,0.07-0.2,0.16v4.04h0c0,0.09,0.09,0.16,0.2,0.16c0.11,0,0.2-0.07,0.2-0.16h0
			v-4.04C452.96,503.29,452.87,503.22,452.76,503.22z"/>
		<path class="st14" d="M452.89,512.04c-0.11,0-0.2,0.05-0.2,0.12v2.9h0c0,0.06,0.09,0.12,0.2,0.12c0.11,0,0.2-0.05,0.2-0.12h0v-2.9
			C453.09,512.1,453,512.04,452.89,512.04z"/>
		<path class="st14" d="M455.32,512.48c-0.11,0-0.2,0.05-0.2,0.12v2.87h0c0,0.06,0.09,0.12,0.2,0.12s0.2-0.05,0.2-0.12h0v-2.87
			C455.52,512.53,455.43,512.48,455.32,512.48z"/>
		<path class="st14" d="M453.72,511.34c-0.11,0-0.2,0.07-0.2,0.16v4.04h0c0,0.09,0.09,0.16,0.2,0.16s0.2-0.07,0.2-0.16h0v-4.04
			C453.92,511.42,453.83,511.34,453.72,511.34z"/>
		<path class="st14" d="M455.92,503.36c-0.11,0-0.2,0.07-0.2,0.16v4.04h0c0,0.09,0.09,0.16,0.2,0.16c0.11,0,0.2-0.07,0.2-0.16h0
			v-4.04C456.13,503.43,456.04,503.36,455.92,503.36z"/>
		<path class="st14" d="M453.84,503.85c-0.11,0-0.2,0.05-0.2,0.1v2.57h0c0,0.06,0.09,0.1,0.2,0.1s0.2-0.05,0.2-0.1h0v-2.57
			C454.04,503.89,453.95,503.85,453.84,503.85z"/>
		<path class="st15" d="M453.72,520.78l-2.29-3.75c-0.32-0.52,0.06-1.19,0.67-1.19h4.57c0.61,0,0.98,0.67,0.67,1.19l-2.29,3.75
			C454.75,521.28,454.02,521.28,453.72,520.78z"/>
	</g>
	<path class="st1" d="M417.76,517.26c0,0-25.06,3.38-27.83,44.37l25.06,10.8C415,572.43,411.4,540.6,417.76,517.26z"/>
	<path class="st16" d="M417.62,517.25c0,0,0,0-0.17,0.59c-1.17,3.98-5.5,21.51-2.49,54.89l34.48-10.94
		C449.44,561.8,445.59,522.12,417.62,517.25z"/>
	<path class="st17" d="M408.73,527.78c-1.71-0.65-3.28-0.07-3.95,1.07c-0.05,0.09-0.11,0.21-0.14,0.26l-3.67,5.55l9.55,4.37
		l0.55-8.11c0,0,0-0.01-0.01-0.03C411.28,529.71,410.3,528.37,408.73,527.78z"/>
	<g>
		<path class="st18" d="M514.3,482.51c-0.44-2.33-2.23-1.82-2.23-1.82c-2.71-4.37-5.97-2.7-5.97-2.7l-0.7-0.68l-1.44,1.46
			l-1.44,1.46l0.7,0.68c0,0-1.61,3.29,2.81,5.92c0,0-0.48,1.79,1.86,2.19c0,0,0.42,2.1,2.14,2.08c0,0,1.39,2,2.7,2.85c0,0,0,0,0,0
			c0.9,0.89,3.1,0.1,4.92-1.75c1.82-1.85,2.56-4.07,1.66-4.95c-0.02-0.02-0.04-0.03-0.05-0.05c-0.89-1.28-2.86-2.59-2.86-2.59
			C516.41,482.89,514.3,482.51,514.3,482.51z"/>
		<path class="st17" d="M512.97,481.87c-0.05,0.05-0.08,0.1-0.1,0.16c-3.13,4.18-4.8,5.04-5.38,5.22c-0.17-0.25-0.23-0.6-0.09-1.07
			c0,0,0.24-1.09-0.75-0.67c0,0-1.15,2.69,1.74,3.19l0.66,0.02c0,0,0.77-0.44,0.08-0.78c0,0-0.52-0.01-1.01-0.21l0.3-0.06
			c2.87-1.79,5.08-5.17,5.08-5.17l-0.02-0.02c0.02-0.01,0.04-0.03,0.05-0.05c0.17-0.17,0.18-0.44,0.02-0.59
			C513.41,481.68,513.14,481.7,512.97,481.87z"/>
		<path class="st17" d="M514.79,483.53c-0.04,0.05-0.08,0.1-0.1,0.15c-3.01,4.02-4.58,4.78-5.23,5.12c-0.15,0.05-0.23,0.07-0.3,0.1
			c-0.22,0.09-0.35,0.3-0.28,0.49c0.07,0.18,0.25,0.26,0.48,0.18c0.07-0.03,0.12-0.04,0.19-0.08l0.05-0.04l0.77-0.48
			c2.87-1.79,4.96-4.83,4.96-4.83l0.04-0.06c0.02-0.01-0.01,0.01,0,0c0.12-0.12,0.17-0.43,0.01-0.59
			C515.22,483.35,514.96,483.36,514.79,483.53z"/>
		<path class="st17" d="M516.52,485.53c-0.04,0.05-0.08,0.1-0.1,0.15c-3.01,4.02-4.58,4.78-5.23,5.12c-0.15,0.05-0.23,0.07-0.3,0.1
			c-0.22,0.09-0.35,0.3-0.28,0.49c0.07,0.18,0.25,0.26,0.48,0.18c0.07-0.03,0.12-0.04,0.19-0.08l0.05-0.04l0.77-0.48
			c2.87-1.79,4.96-4.83,4.96-4.83l0.04-0.06c0.02-0.01-0.01,0.01,0,0c0.12-0.12,0.17-0.43,0.01-0.59
			C516.95,485.35,516.69,485.36,516.52,485.53z"/>
		<circle class="st17" cx="509.76" cy="483.16" r="0.87"/>
		<circle class="st17" cx="509.09" cy="485.01" r="0.61"/>
		<circle class="st17" cx="511.01" cy="486.6" r="0.56"/>
		<circle class="st17" cx="512.14" cy="485.89" r="0.34"/>
		<circle class="st17" cx="512.46" cy="488.04" r="0.29"/>
		<circle class="st17" cx="513.58" cy="487.35" r="0.34"/>
		<circle class="st17" cx="513.47" cy="488.45" r="0.29"/>
		
			<rect x="502.35" y="478.61" transform="matrix(0.7005 -0.7136 0.7136 0.7005 -190.8809 503.3914)" class="st17" width="3.98" height="1.03"/>
		<path class="st3" d="M505.48,476.35c-0.2-0.27-0.51-0.11-0.51-0.11l-1.17-1.2c-1.03,0.05-2.23,1.35-2.23,1.35
			s-1.28,1.22-1.31,2.25l1.22,1.15c0,0-0.15,0.31,0.12,0.51c0.01,0.02,0.03,0.04,0.05,0.05c0.16,0.16,0.4,0.19,0.6,0.1
			c0.19-0.04,0.71-0.27,1.89-1.54c1.25-1.21,1.48-1.73,1.51-1.92c0.09-0.2,0.05-0.44-0.11-0.6
			C505.51,476.38,505.49,476.37,505.48,476.35z"/>
	</g>
	<path class="st5" d="M489.88,497.05l2.24,5.83c0,0,25.58-7.18,43.54,0c0,0,6.73,2.69,4.04,11.67l10.77,2.24
		c0,0,5.83-19.3-17.5-21.99L489.88,497.05z"/>
	<path class="st5" d="M499.76,534.45l6.13,6.58c0,0-8.53,9.87-18.1,15.11l-6.13-7.03C481.65,549.11,495.8,543.29,499.76,534.45z"/>
	<path class="st5" d="M505.37,545.97l6.13,6.58c0,0-8.53,9.87-18.1,15.11l-6.13-7.03C487.26,560.63,501.41,554.81,505.37,545.97z"/>
	<path class="st5" d="M509.33,530.71c0,0,6.58-4.34,10.32,0c0,0,7.03,36.06-6.13,37.85c0,0-2.69-0.3-6.13-5.98l4.11-0.3
		c0,0,5.46-16.76,0.67-26.33l-3.14-0.6L509.33,530.71z"/>
	<path class="st3" d="M526.98,546.87l-2.54,8.68c0,0,13.17,9.58,19.6,5.54l3.14-9.43C547.18,551.66,534.17,553.75,526.98,546.87z"/>
	<g>
		<path class="st6" d="M488.92,483.19c0,0-17.34,5.54-18.76,21.53c0,0,0.72,6.27-2.66,12.07c0,0,22.25-12.91,20.62-31.86
			C488.12,484.93,488.39,483.82,488.92,483.19z"/>
		<path class="st7" d="M485.23,493.59c0,0-8.58,1.65-10.4,10.44c0,0,0.57,3.71-10.31,15.06l1.71,1.78c0,0,8.82-13.09,9.58-15.79
			C475.8,505.07,475.12,499.4,485.23,493.59z"/>
	</g>
	<path class="st16" d="M195.23,498.96V492h-0.01c0-1.53-1.42-2.78-3.17-2.78s-3.17,1.24-3.17,2.78h-0.01v9.96h0.02
		c0.12,1.44,1.47,2.58,3.14,2.58v0h10.47v-5.58H195.23z"/>
	<path class="st16" d="M217.81,498.96V492h0.01c0-1.53,1.42-2.78,3.17-2.78c1.75,0,3.17,1.24,3.17,2.78h0.01v9.96h-0.02
		c-0.12,1.44-1.47,2.58-3.14,2.58v0h-10.47v-5.58H217.81z"/>
	<path class="st16" d="M195.23,515.58v6.96h-0.01c0,1.53-1.42,2.78-3.17,2.78s-3.17-1.24-3.17-2.78h-0.01v-9.96h0.02
		c0.12-1.44,1.47-2.58,3.14-2.58v0h10.47v5.58H195.23z"/>
	<path class="st16" d="M217.81,515.58v6.96h0.01c0,1.53,1.42,2.78,3.17,2.78c1.75,0,3.17-1.24,3.17-2.78h0.01v-9.96h-0.02
		c-0.12-1.44-1.47-2.58-3.14-2.58v0h-10.47v5.58H217.81z"/>
	<path class="st16" d="M209.46,492.34c0-0.01,0-0.02,0-0.03c0-1.71-1.32-3.09-2.94-3.09c-1.63,0-2.94,1.38-2.94,3.09
		c0,0.01,0,0.02,0,0.03h0v29.89h0c0,1.71,1.32,3.09,2.94,3.09c1.63,0,2.94-1.38,2.94-3.09h0L209.46,492.34L209.46,492.34z"/>
	<ellipse class="st1" cx="179.92" cy="539.84" rx="22.74" ry="15.51"/>
	<path class="st16" d="M168.63,545.54v-6.96h-0.01c0-1.53-1.42-2.78-3.17-2.78s-3.17,1.24-3.17,2.78h-0.01v9.96h0.02
		c0.12,1.44,1.47,2.58,3.14,2.58v0h10.47v-5.58H168.63z"/>
	<path class="st16" d="M191.21,545.54v-6.96h0.01c0-1.53,1.42-2.78,3.17-2.78c1.75,0,3.17,1.24,3.17,2.78h0.01v9.96h-0.02
		c-0.12,1.44-1.47,2.58-3.14,2.58v0h-10.47v-5.58H191.21z"/>
	<path class="st16" d="M168.63,562.16v6.96h-0.01c0,1.53-1.42,2.78-3.17,2.78s-3.17-1.24-3.17-2.78h-0.01v-9.96h0.02
		c0.12-1.44,1.47-2.58,3.14-2.58v0h10.47v5.58H168.63z"/>
	<path class="st16" d="M191.21,562.16v6.96h0.01c0,1.53,1.42,2.78,3.17,2.78c1.75,0,3.17-1.24,3.17-2.78h0.01v-9.96h-0.02
		c-0.12-1.44-1.47-2.58-3.14-2.58v0h-10.47v5.58H191.21z"/>
	<path class="st16" d="M182.86,538.92c0-0.01,0-0.02,0-0.03c0-1.71-1.32-3.09-2.94-3.09c-1.63,0-2.94,1.38-2.94,3.09
		c0,0.01,0,0.02,0,0.03h0v29.89h0c0,1.71,1.32,3.09,2.94,3.09c1.63,0,2.94-1.38,2.94-3.09h0L182.86,538.92L182.86,538.92z"/>
	<ellipse class="st1" cx="234.45" cy="539.75" rx="22.74" ry="15.51"/>
	<path class="st16" d="M223.16,545.45v-6.96h-0.01c0-1.53-1.42-2.78-3.17-2.78c-1.75,0-3.17,1.24-3.17,2.78h-0.01v9.96h0.02
		c0.12,1.44,1.47,2.58,3.14,2.58v0h10.47v-5.58H223.16z"/>
	<path class="st16" d="M245.74,545.45v-6.96h0.01c0-1.53,1.42-2.78,3.17-2.78c1.75,0,3.17,1.24,3.17,2.78h0.01v9.96h-0.02
		c-0.12,1.44-1.47,2.58-3.14,2.58v0h-10.47v-5.58H245.74z"/>
	<path class="st16" d="M223.16,562.07v6.96h-0.01c0,1.53-1.42,2.78-3.17,2.78c-1.75,0-3.17-1.24-3.17-2.78h-0.01v-9.96h0.02
		c0.12-1.44,1.47-2.58,3.14-2.58v0h10.47v5.58H223.16z"/>
	<path class="st16" d="M245.74,562.07v6.96h0.01c0,1.53,1.42,2.78,3.17,2.78c1.75,0,3.17-1.24,3.17-2.78h0.01v-9.96h-0.02
		c-0.12-1.44-1.47-2.58-3.14-2.58v0h-10.47v5.58H245.74z"/>
	<path class="st16" d="M237.39,538.84c0-0.01,0-0.02,0-0.03c0-1.71-1.32-3.09-2.94-3.09c-1.63,0-2.94,1.38-2.94,3.09
		c0,0.01,0,0.02,0,0.03h0v29.89h0c0,1.71,1.32,3.09,2.94,3.09c1.63,0,2.94-1.38,2.94-3.09h0L237.39,538.84L237.39,538.84z"/>
	<path class="st17" d="M419.87,569.77l26.31-8.2c0,0-0.92-13.26-11.22-22.77c0,0-2.17-1.97-5.18-3.61l-2.03-1.05
		C427.74,534.14,416.98,540.7,419.87,569.77z"/>
	<rect x="492.57" y="509.62" class="st5" width="37.55" height="10.17"/>
	<g>
		<path class="st2" d="M528.64,542.51v1.42h-2.07c0,0-2.93-0.64-1.92-3.42l1.83-3.13l-0.62-0.39l2.49-1.43v2.84l-0.64-0.37
			l-1.76,3.15c0,0-0.42,0.92,0.69,1.31L528.64,542.51z"/>
		<path class="st2" d="M529.34,535.04l-1.23-0.71l1.03-1.79c0,0,2.01-2.22,3.93,0.05l1.79,3.15l0.65-0.34l-0.01,2.88l-2.46-1.42
			l0.64-0.37l-1.84-3.1c0,0-0.58-0.82-1.48-0.06L529.34,535.04z"/>
		<path class="st2" d="M535.42,539.47l1.22-0.72l1.05,1.78c0,0,0.94,2.85-1.97,3.4l-3.63,0.01l-0.02,0.74l-2.5-1.42l2.45-1.44
			l0.01,0.74l3.6-0.08c0,0,1-0.1,0.78-1.26L535.42,539.47z"/>
	</g>
</g>
</svg>
