<svg width="16" height="50" viewBox="0 0 16 50" fill="none" xmlns="http://www.w3.org/2000/svg">
<path fill-rule="evenodd" clip-rule="evenodd" d="M14.5898 49.1763C14.1453 49.3991 13.6304 49.4361 13.1585 49.2793C12.6866 49.1225 12.2964 48.7846 12.0736 48.3401L0.823594 25.8401C0.692939 25.5793 0.624907 25.2917 0.624907 25.0001C0.624907 24.7084 0.692939 24.4208 0.823594 24.1601L12.0736 1.66008C12.1827 1.438 12.3348 1.23972 12.5209 1.07667C12.707 0.913624 12.9236 0.789032 13.1581 0.710083C13.3926 0.631134 13.6405 0.599388 13.8873 0.616672C14.1342 0.633957 14.3751 0.699928 14.5964 0.810791C14.8176 0.921654 15.0147 1.0752 15.1763 1.2626C15.3379 1.45 15.4608 1.66753 15.5379 1.90265C15.6151 2.13777 15.6449 2.38584 15.6257 2.63255C15.6065 2.87925 15.5387 3.11971 15.4261 3.34008L4.59984 25.0001L15.4261 46.6601C15.6489 47.1046 15.6859 47.6195 15.5291 48.0914C15.3723 48.5633 15.0344 48.9535 14.5898 49.1763Z" fill="#6A6842"/>
</svg>
