<svg width="31" height="30" viewBox="0 0 31 30" fill="none" xmlns="http://www.w3.org/2000/svg">
<g clip-path="url(#clip0_611_1702)">
<path d="M15.2531 23.8365L7.08397 28.0427C7.0837 28.0378 7.08383 28.03 7.08581 28.0187L7.08591 28.0181L8.63952 19.1494L8.73181 18.6226L8.34487 18.2534L1.75111 11.9615C1.75104 11.9615 1.75097 11.9614 1.75091 11.9613C1.74532 11.9559 1.74344 11.9527 1.74289 11.9518C1.74217 11.9505 1.74119 11.9484 1.74032 11.9447C1.73824 11.9359 1.73752 11.9199 1.74296 11.9016C1.74423 11.8973 1.74559 11.8937 1.74687 11.8908L10.8989 10.5881L11.416 10.5145L11.651 10.0481L15.7137 1.98544L19.7763 10.0481L20.0113 10.5145L20.5284 10.5881L29.6803 11.8908C29.6815 11.8936 29.6828 11.897 29.684 11.901C29.6893 11.919 29.6886 11.9348 29.6866 11.9434C29.6862 11.9448 29.6859 11.946 29.6855 11.947C29.685 11.9485 29.6844 11.9496 29.684 11.9504C29.6834 11.9514 29.6814 11.9548 29.6755 11.9605L29.675 11.961L23.0824 18.2535L22.6956 18.6227L22.7878 19.1494L24.3414 28.0181L24.3415 28.0187C24.3437 28.0307 24.3437 28.0388 24.3433 28.0436L16.1685 23.8364L15.7108 23.6009L15.2531 23.8365Z" stroke="#FFBA34" stroke-width="2"/>
</g>
<defs>
<clipPath id="clip0_611_1702">
<rect width="29.9492" height="30" fill="white" transform="translate(0.736328)"/>
</clipPath>
</defs>
</svg>
