<?xml version="1.0" encoding="utf-8"?>
<!-- Generator: Adobe Illustrator 25.2.1, SVG Export Plug-In . SVG Version: 6.00 Build 0)  -->
<svg version="1.1" id="圖層_1" xmlns="http://www.w3.org/2000/svg" xmlns:xlink="http://www.w3.org/1999/xlink" x="0px" y="0px"
	 viewBox="0 0 595.28 841.89" style="enable-background:new 0 0 595.28 841.89;" xml:space="preserve">
<style type="text/css">
	.st0{fill:#DBE0D8;stroke:#9AAC87;stroke-width:5;stroke-miterlimit:10;}
	.st1{fill:#98A985;}
	.st2{fill:#98A985;stroke:#9AAC87;stroke-miterlimit:10;}
	.st3{fill:#41B035;}
	.st4{fill:#166534;}
</style>
<g>
	<g>
		<path class="st0" d="M281.92,123.07c-77.41,0-140.17,62.76-140.17,140.17c0,68.87,49.67,126.13,115.13,137.94l3.81-125.12
			c0,0-6.64,2.55-14.81-29.11l-15.83-55.15c0,0,17.87-4.09,22.98,12.77l4.09-59.74c0,0,12.44-11,15.09,4.5l0.23-8.29
			c0,0,6.13-11.96,17.36,0l-1.26,21.42c1.82-10.48,4.62-17.95,8.92-17.12c0,0,8.17,0,7.66,12.26l-0.6,9.15l-0.59,8.88
			c1.36-8.07,3.36-12.98,6.3-9.35c0,0,7.66-2.04,7.66,9.7v84.26c0,0,0.51,10.21-9.7,17.36l3.4,122.66
			c63.16-13.61,110.51-69.78,110.51-137.01C422.09,185.82,359.33,123.07,281.92,123.07z"/>
		<polygon class="st1" points="269.76,149.51 269.92,199.92 274.67,149.23 		"/>
		<polygon class="st1" points="286.11,161.66 291,162.8 284.28,199.92 		"/>
		<path class="st2" d="M316.79,166.03c-0.93-1.44-4.18-2.5-8.06-2.5c-1.33,0-2.59,0.13-3.7,0.35v2.15H316.79z"/>
		<polygon class="st1" points="302.31,166.22 309.78,167.94 298.39,199.92 		"/>
	</g>
	<g>
		<path class="st3" d="M343.49,251.44c0,0-23.36,7.51-16.73,27.61C326.76,279.05,344.88,277.52,343.49,251.44z"/>
		<path class="st4" d="M325.39,281.19c0,0,2.14-12.55,14.59-22.24c0,0-14.2,18.61-12.3,21.76L325.39,281.19z"/>
	</g>
	<g>
		<path class="st3" d="M317.4,373.37c0,0-5.31,14.1,7.71,18.44c0,0,4.72-4.19-3.95-16.76c0,0-3.13-3.5-2.22-3.69
			C318.94,371.37,318.39,371.41,317.4,373.37z"/>
		<path class="st4" d="M318.72,377.56c0,0,1.29,9.17,7.13,15.7l0.62-0.56C326.47,392.71,322.74,389.2,318.72,377.56z"/>
	</g>
	<g>
		<path class="st3" d="M317.36,352.86c0,0-5.31,14.1,7.71,18.44c0,0,4.72-4.19-3.95-16.76c0,0-3.13-3.5-2.22-3.69
			C318.9,350.85,318.35,350.9,317.36,352.86z"/>
		<path class="st4" d="M318.68,357.05c0,0,1.29,9.17,7.13,15.7l0.62-0.56C326.43,372.2,322.71,368.68,318.68,357.05z"/>
	</g>
	<g>
		<path class="st3" d="M347.94,268.46c0,0-17.16,18.16-0.85,32.02c0,0,9.74-3.63,5.27-27.37c0,0-2.29-7.02-0.82-6.79
			C351.55,266.32,350.71,266.08,347.94,268.46z"/>
		<path class="st4" d="M347.12,275.49c0,0-4.17,14.49,0.11,27.58l1.28-0.49C348.51,302.59,345.35,295.22,347.12,275.49z"/>
	</g>
	<g>
		<path class="st3" d="M348,343.14c0,0-13.02,7.58-5.67,19.17c0,0,6.31-0.27,7.52-15.48c0,0-0.21-4.69,0.61-4.26
			C350.47,342.56,350.01,342.25,348,343.14z"/>
		<path class="st4" d="M346.38,347.23c0,0-4.79,7.93-4.4,16.68l0.83-0.04C342.82,363.86,342.15,358.79,346.38,347.23z"/>
	</g>
	<g>
		<path class="st3" d="M331.45,339.06c0,0-11.09,10.2-1.42,19.94c0,0,6.11-1.62,4.02-16.74c0,0-1.21-4.54-0.32-4.29
			C333.73,337.96,333.22,337.75,331.45,339.06z"/>
		<path class="st4" d="M330.74,343.39c0,0-2.98,8.77-0.71,17.23l0.81-0.22C330.84,360.41,329.1,355.59,330.74,343.39z"/>
	</g>
	<g>
		<path class="st3" d="M335.22,300.03c0,0-32.53,15.09-17.66,44.17c0,0,15.01,0.75,21.23-35.04c0,0,0.53-11.16,2.39-9.96
			C341.19,299.2,340.17,298.36,335.22,300.03z"/>
		<path class="st4" d="M330.48,309.36c0,0-13.1,17.73-14.09,38.55l1.99,0.09C318.38,347.99,317.91,335.82,330.48,309.36z"/>
	</g>
	<g>
		<path class="st3" d="M332.64,362.91c0,0-9.87,11.38,0.83,19.97c0,0,5.88-2.3,2.11-17.09c0,0-1.72-4.37-0.8-4.23
			C334.79,361.56,334.25,361.42,332.64,362.91z"/>
		<path class="st4" d="M332.43,367.3c0,0-1.97,9.05,1.24,17.2l0.78-0.31C334.44,384.19,332.17,379.6,332.43,367.3z"/>
	</g>
	<g>
		<path class="st3" d="M332.88,282.67c0,0-19.01,3.64-15.02,20.81c0,0,7.76,2.36,15.7-15.56c0,0,1.74-5.77,2.56-4.9
			C336.11,283.01,335.69,282.44,332.88,282.67z"/>
		<path class="st4" d="M329.18,286.92c0,0-9.18,7.57-12.42,18.34l1.03,0.31C317.79,305.57,319.14,299.13,329.18,286.92z"/>
	</g>
	<g>
		<path class="st3" d="M379,349.28c0,0-14.92,2.13-12.46,15.63c0,0,5.95,2.12,12.79-11.52c0,0,1.57-4.43,2.17-3.72
			C381.5,349.67,381.19,349.21,379,349.28z"/>
		<path class="st4" d="M375.96,352.46c0,0-7.42,5.55-10.34,13.8l0.79,0.28C366.41,366.53,367.69,361.58,375.96,352.46z"/>
	</g>
	<g>
		<path class="st3" d="M361.25,352.8c0,0-13.6,6.49-7.22,18.64c0,0,6.31,0.25,8.76-14.82c0,0,0.17-4.69,0.96-4.2
			C363.75,352.42,363.32,352.08,361.25,352.8z"/>
		<path class="st4" d="M359.3,356.74c0,0-5.42,7.51-5.74,16.26l0.83,0.03C354.4,373.03,354.14,367.91,359.3,356.74z"/>
	</g>
	<g>
		<path class="st3" d="M347.7,363.32c0,0-13.01,7.59-5.65,19.17c0,0,6.31-0.28,7.5-15.49c0,0-0.22-4.69,0.61-4.26
			C350.16,362.74,349.71,362.43,347.7,363.32z"/>
		<path class="st4" d="M346.08,367.41c0,0-4.78,7.93-4.38,16.68l0.83-0.04C342.54,384.05,341.87,378.97,346.08,367.41z"/>
	</g>
	<g>
		<path class="st3" d="M376.77,294.09c0,0-44.08,5.42-37.61,45.34c0,0,17.41,6.6,38.35-33.22c0,0,4.88-12.95,6.61-10.83
			C384.12,295.38,383.25,294.01,376.77,294.09z"/>
		<path class="st4" d="M367.64,303.28c0,0-22.18,15.92-31.26,40.07l2.31,0.86C338.69,344.21,342.77,329.68,367.64,303.28z"/>
	</g>
	<g>
		<path class="st3" d="M395.56,321.88c0,0-35.5-5.05-38.86,27.43c0,0,12.18,8.81,36.89-17.83c0,0,6.53-9.07,7.43-7.05
			C401.01,324.44,400.62,323.18,395.56,321.88z"/>
		<path class="st4" d="M386.51,327.12c0,0-20.64,7.74-32.81,24.67l1.62,1.15C355.32,352.94,361.56,342.48,386.51,327.12z"/>
	</g>
	<g>
		<path class="st3" d="M374.21,267.6c0,0-23.65,8.06-15.68,27.93c0,0,10.31,1.33,17.43-21.75c0,0,1.25-7.28,2.44-6.39
			C378.4,267.39,377.76,266.78,374.21,267.6z"/>
		<path class="st4" d="M370.2,273.44c0,0-10.44,10.88-12.77,24.45l1.36,0.17C358.8,298.05,359.44,290.06,370.2,273.44z"/>
	</g>
	<g>
		<path class="st3" d="M417.25,276.61c0,0-17.37,4.18-13.65,19.14C403.6,295.75,416.84,295.63,417.25,276.61z"/>
		<path class="st4" d="M402.49,297.24c0,0,2.24-9,11.8-15.36c0,0-11.32,12.74-10.11,15.13L402.49,297.24z"/>
	</g>
	<g>
		<path class="st3" d="M396.56,276.06c0,0-20.06-3.42-21.52,14.87C375.04,290.93,389.22,296.94,396.56,276.06z"/>
		<path class="st4" d="M373.32,292.06c0,0,5.66-8.93,18.18-11.54c0,0-16.71,8.86-16.3,12.07L373.32,292.06z"/>
	</g>
	<g>
		<path class="st3" d="M409.87,299.07c0,0-17.38,4.13-13.71,19.1C396.16,318.16,409.4,318.08,409.87,299.07z"/>
		<path class="st4" d="M395.05,319.64c0,0,2.26-8.99,11.85-15.32c0,0-11.36,12.7-10.16,15.1L395.05,319.64z"/>
	</g>
	<g>
		<path class="st3" d="M397.41,288.46c0,0-22.82,10.27-13.81,29.89C383.6,318.35,401.79,314.74,397.41,288.46z"/>
		<path class="st4" d="M382.46,320.68c0,0,0.74-12.97,12.25-24.2c0,0-12.27,20.47-9.99,23.45L382.46,320.68z"/>
	</g>
	<g>
		<path class="st3" d="M340.76,225.36c0,0-25.93,6.17-16.47,29.22C324.29,254.58,344.81,254.58,340.76,225.36z"/>
		<path class="st4" d="M322.94,256.84c0,0,1.26-13.8,14.54-23.43c0,0-14.44,19.41-11.97,23.11L322.94,256.84z"/>
	</g>
	<g>
		<path class="st3" d="M379.5,210.55c0,0-45.35,20.86-21.81,55.8c0,0,21.53-0.08,27.64-44.76c0,0-0.11-13.84,2.65-12.48
			C387.98,209.12,386.46,208.15,379.5,210.55z"/>
		<path class="st4" d="M373.45,222.4c0,0-17.35,22.81-17.14,48.62l2.85-0.03C359.16,270.99,357.54,255.97,373.45,222.4z"/>
	</g>
	<g>
		<path class="st3" d="M404.96,226.78c0,0-33.47,12.88-20.58,42.89c0,0,14.93,1.76,23.54-33.54c0,0,1.28-11.1,3.06-9.78
			C410.97,226.35,410.02,225.45,404.96,226.78z"/>
		<path class="st4" d="M399.61,235.76c0,0-14.26,16.82-16.64,37.52l1.97,0.22C384.94,273.5,385.3,261.32,399.61,235.76z"/>
	</g>
	<g>
		<path class="st3" d="M414.41,254.59c0,0-16.89,3.2-14.1,23.49c0,0,6.73,3.19,14.48-17.32c0,0,1.78-6.65,2.46-5.59
			C417.25,255.18,416.9,254.48,414.41,254.59z"/>
		<path class="st4" d="M410.98,259.36c0,0-8.4,8.34-11.71,20.74l0.89,0.41C400.16,280.52,401.62,273.08,410.98,259.36z"/>
	</g>
	<g>
		<path class="st3" d="M253.05,129.97c0,0,9.52-4.86,15.88,6.17c0,0-2.09,4.13-13.71-2.99c0,0-3.41-2.59-3.34-1.81
			C251.88,131.34,251.79,130.86,253.05,129.97z"/>
		<path class="st4" d="M256.56,131.01c0,0,7.3,0.9,13.66,5.73l-0.28,0.54C269.93,137.28,266.38,134.18,256.56,131.01z"/>
	</g>
	<g>
		<path class="st3" d="M340.84,195.41c0,0-25.93,6.17-16.47,29.22C324.37,224.62,344.89,224.63,340.84,195.41z"/>
		<path class="st4" d="M323.01,226.88c0,0,1.26-13.8,14.54-23.43c0,0-14.44,19.41-11.97,23.11L323.01,226.88z"/>
	</g>
	<g>
		<path class="st3" d="M350.61,233.41c0,0-12.42,2.96-7.89,13.99C342.73,247.4,352.55,247.4,350.61,233.41z"/>
		<path class="st4" d="M342.08,248.48c0,0,0.6-6.61,6.96-11.22c0,0-6.91,9.29-5.73,11.06L342.08,248.48z"/>
	</g>
	<g>
		<path class="st3" d="M374.16,179.21c0,0-37.79,12.64-27.54,44.99C346.62,224.2,375.85,221.34,374.16,179.21z"/>
		<path class="st4" d="M344.37,227.7c0,0,3.72-20.34,23.98-36.27c0,0-23.27,30.38-20.28,35.44L344.37,227.7z"/>
	</g>
	<g>
		<path class="st3" d="M341.12,140.87c0,0-27.92,5.92-17.04,30.98C324.08,171.85,346.31,172.42,341.12,140.87z"/>
		<path class="st4" d="M322.67,174.25c0,0,0.98-14.81,15.1-24.81c0,0-15.1,20.49-12.34,24.53L322.67,174.25z"/>
	</g>
	<g>
		<path class="st3" d="M338.72,172.12c0,0-22.07,5.25-14.02,24.87C324.7,196.99,342.17,196.99,338.72,172.12z"/>
		<path class="st4" d="M323.55,198.91c0,0,1.07-11.75,12.38-19.95c0,0-12.29,16.52-10.19,19.67L323.55,198.91z"/>
	</g>
	<g>
		<path class="st3" d="M364.48,155.46c0,0-31.49,7.5-20,35.48C344.48,190.94,369.4,190.95,364.48,155.46z"/>
		<path class="st4" d="M342.83,193.69c0,0,1.53-16.76,17.66-28.46c0,0-17.53,23.57-14.54,28.06L342.83,193.69z"/>
	</g>
	<g>
		<path class="st3" d="M403.91,203.64c0,0-22.17,5.28-14.09,24.99C389.82,228.63,407.37,228.63,403.91,203.64z"/>
		<path class="st4" d="M388.66,230.56c0,0,1.07-11.8,12.43-20.04c0,0-12.35,16.6-10.24,19.76L388.66,230.56z"/>
	</g>
	<g>
		<path class="st3" d="M389.14,183.57c0,0-20.91,2.57-10.95,21.97C378.19,205.55,395.19,207.44,389.14,183.57z"/>
		<path class="st4" d="M377.27,207.24c0,0-0.23-10.98,9.89-17.5c0,0-10.17,14.28-7.79,17.48L377.27,207.24z"/>
	</g>
	<g>
		<path class="st3" d="M374.52,165.67c0,0-12.42,2.96-7.89,13.99C366.63,179.66,376.46,179.66,374.52,165.67z"/>
		<path class="st4" d="M365.98,180.74c0,0,0.6-6.61,6.96-11.22c0,0-6.91,9.29-5.73,11.06L365.98,180.74z"/>
	</g>
	<g>
		<path class="st3" d="M382.35,175.16c0,0-9.19,2.19-5.84,10.35C376.51,185.51,383.78,185.52,382.35,175.16z"/>
		<path class="st4" d="M376.03,186.32c0,0,0.44-4.89,5.15-8.3c0,0-5.12,6.88-4.24,8.19L376.03,186.32z"/>
	</g>
	<g>
		<path class="st3" d="M318.42,134.09c0,0-16.55,11.01-3.69,24.61C314.73,158.7,329.14,153.39,318.42,134.09z"/>
		<path class="st4" d="M314.38,160.62c0,0-2.84-9.93,3.89-20.08c0,0-4.9,17.25-2.18,19.19L314.38,160.62z"/>
	</g>
	<g>
		<path class="st3" d="M312.57,131.47c0,0-12.69-5.45-15.72,7.2C296.85,138.66,305.41,145.04,312.57,131.47z"/>
		<path class="st4" d="M295.6,139.19c0,0,4.7-5.43,13.16-5.36c0,0-11.9,3.7-12,6.02L295.6,139.19z"/>
	</g>
	<g>
		<path class="st3" d="M298.27,128.6c0,0-9.03-4.89-12.13,4.27C286.14,132.87,292.05,138.17,298.27,128.6z"/>
		<path class="st4" d="M285.17,133.18c0,0,3.85-3.7,10.11-3.08c0,0-9.07,1.94-9.29,3.65L285.17,133.18z"/>
	</g>
	<g>
		<path class="st3" d="M270.36,127.38c0,0,9.03-4.89,12.13,4.27C282.5,131.65,276.58,136.95,270.36,127.38z"/>
		<path class="st4" d="M283.46,131.96c0,0-3.85-3.7-10.11-3.08c0,0,9.07,1.94,9.29,3.65L283.46,131.96z"/>
	</g>
	<g>
		<path class="st3" d="M266.96,130.55c0,0,4.05-2.07,6.77,2.63c0,0-0.89,1.76-5.84-1.27c0,0-1.45-1.1-1.42-0.77
			C266.46,131.13,266.42,130.93,266.96,130.55z"/>
		<path class="st4" d="M268.45,130.99c0,0,3.11,0.38,5.82,2.44l-0.12,0.23C274.15,133.66,272.64,132.34,268.45,130.99z"/>
	</g>
	<g>
		<path class="st3" d="M197.19,365.02c0,0,10.24-0.77,9.33,8.86C206.52,373.88,198.95,376.3,197.19,365.02z"/>
		<path class="st4" d="M207.27,374.56c0,0-2-4.95-7.97-6.95c0,0,7.48,5.47,6.99,7.13L207.27,374.56z"/>
	</g>
	<g>
		<path class="st3" d="M180.6,350.8c0,0,19.41-10.51,26.07,9.18C206.66,359.99,193.96,371.37,180.6,350.8z"/>
		<path class="st4" d="M208.73,360.65c0,0-8.27-7.96-21.73-6.63c0,0,19.48,4.16,19.96,7.85L208.73,360.65z"/>
	</g>
	<g>
		<path class="st3" d="M240.63,349.71c0,0,15.45-0.38,13.34,14.02C253.97,363.73,242.42,366.79,240.63,349.71z"/>
		<path class="st4" d="M255.05,364.81c0,0-2.63-7.6-11.45-11.05c0,0,10.83,8.8,9.96,11.25L255.05,364.81z"/>
	</g>
	<g>
		<path class="st3" d="M216.34,380.32c0,0,9.03-4.89,12.13,4.27C228.47,384.6,222.56,389.89,216.34,380.32z"/>
		<path class="st4" d="M229.43,384.91c0,0-3.85-3.7-10.11-3.08c0,0,9.07,1.94,9.29,3.65L229.43,384.91z"/>
	</g>
	<g>
		<path class="st3" d="M238.61,362.19c0,0,17.27,1.29,13.32,17.12C251.93,379.31,238.71,381.44,238.61,362.19z"/>
		<path class="st4" d="M253.01,380.63c0,0-2.09-8.76-11.53-13.59c0,0,11.1,11.01,9.85,13.65L253.01,380.63z"/>
	</g>
	<g>
		<path class="st3" d="M229.43,378.38c0,0,19.57-5.67,21.71,13.4C251.14,391.77,237.45,399.55,229.43,378.38z"/>
		<path class="st4" d="M252.88,392.78c0,0-5.9-8.8-18.29-10.24c0,0,16.75,7.58,16.47,10.99L252.88,392.78z"/>
	</g>
	<g>
		<path class="st3" d="M226.89,320.68c0,0,28.71-0.71,24.79,26.06C251.68,346.74,230.22,352.42,226.89,320.68z"/>
		<path class="st4" d="M253.68,348.73c0,0-4.88-14.11-21.27-20.53c0,0,20.12,16.35,18.5,20.9L253.68,348.73z"/>
	</g>
	<g>
		<path class="st3" d="M240.2,309.74c0,0,17.27,1.29,13.32,17.12C253.52,326.86,240.3,328.99,240.2,309.74z"/>
		<path class="st4" d="M254.6,328.18c0,0-2.09-8.76-11.53-13.59c0,0,11.1,11.01,9.85,13.65L254.6,328.18z"/>
	</g>
	<g>
		<path class="st3" d="M230.11,291.34c0,0,22.79-5.19,23.96,16.8C254.07,308.14,237.87,316.13,230.11,291.34z"/>
		<path class="st4" d="M255.99,309.41c0,0-6.17-10.47-20.27-12.95c0,0,18.68,9.8,18.12,13.69L255.99,309.41z"/>
	</g>
	<g>
		<path class="st3" d="M194.66,328.62c0,0,39.65-9.61,42.24,28.73C236.9,357.35,208.82,371.69,194.66,328.62z"/>
		<path class="st4" d="M240.29,359.52c0,0-11.02-18.13-35.69-22.11c0,0,32.84,16.65,31.97,23.46L240.29,359.52z"/>
	</g>
	<g>
		<path class="st3" d="M206.26,365.25c0,0,19.63-12.93,28.5,7.36C234.76,372.61,222.31,385.85,206.26,365.25z"/>
		<path class="st4" d="M237.01,373.13c0,0-9.5-7.69-23.66-5.05c0,0,21.05,2.64,21.9,6.5L237.01,373.13z"/>
	</g>
	<g>
		<path class="st3" d="M208.94,372.6c0,0,7.06,1.33,4.7,7.67C213.64,380.27,208.1,380.54,208.94,372.6z"/>
		<path class="st4" d="M214.03,380.86c0,0-0.46-3.71-4.13-6.13c0,0,4.07,5.05,3.44,6.08L214.03,380.86z"/>
	</g>
	<g>
		<path class="st3" d="M234.82,269.02c0,0,23.36,0.7,18.98,22.27C253.8,291.29,236.11,294.96,234.82,269.02z"/>
		<path class="st4" d="M255.34,293c0,0-3.34-11.68-16.37-17.63c0,0,15.62,14.17,14.1,17.8L255.34,293z"/>
	</g>
	<g>
		<path class="st3" d="M189.1,284.22c0,0,40.75,1.89,32.49,39.42C221.59,323.64,190.61,329.53,189.1,284.22z"/>
		<path class="st4" d="M224.23,326.67c0,0-5.5-20.49-28.06-31.23c0,0,26.86,25.19,24.11,31.48L224.23,326.67z"/>
	</g>
	<g>
		<path class="st3" d="M224.47,301.53c0,0,15.35,1.67,11.35,15.65C235.83,317.18,223.99,318.68,224.47,301.53z"/>
		<path class="st4" d="M236.75,318.39c0,0-1.6-7.87-9.87-12.46c0,0,9.56,10.14,8.37,12.46L236.75,318.39z"/>
	</g>
	<g>
		<path class="st3" d="M191.71,238.09c0,0,45.88,2.13,36.58,44.38C228.29,282.47,193.41,289.1,191.71,238.09z"/>
		<path class="st4" d="M231.26,285.88c0,0-6.19-23.07-31.6-35.16c0,0,30.24,28.36,27.14,35.44L231.26,285.88z"/>
	</g>
	<g>
		<path class="st3" d="M215.05,285.19c0,0,15.64-1.18,14.24,13.52C229.28,298.71,217.74,302.4,215.05,285.19z"/>
		<path class="st4" d="M230.43,299.74c0,0-3.05-7.56-12.17-10.61c0,0,11.42,8.36,10.67,10.89L230.43,299.74z"/>
	</g>
	<g>
		<path class="st3" d="M156.58,302.54c0,0,40.75,1.89,32.49,39.42C189.07,341.96,158.09,347.85,156.58,302.54z"/>
		<path class="st4" d="M191.71,344.99c0,0-5.5-20.49-28.06-31.23c0,0,26.86,25.19,24.11,31.48L191.71,344.99z"/>
	</g>
	<g>
		<path class="st3" d="M187.16,310.21c0,0,15.35,1.67,11.35,15.65C198.52,325.87,186.68,327.37,187.16,310.21z"/>
		<path class="st4" d="M199.44,327.07c0,0-1.6-7.87-9.87-12.46c0,0,9.56,10.14,8.37,12.46L199.44,327.07z"/>
	</g>
	<g>
		<path class="st3" d="M226.62,241.02c0,0,22.94,4.48,15.11,25.06C241.73,266.08,223.68,266.83,226.62,241.02z"/>
		<path class="st4" d="M242.97,268.02c0,0-1.4-12.07-13.29-20.05c0,0,13.11,16.52,11.03,19.86L242.97,268.02z"/>
	</g>
	<g>
		<path class="st3" d="M147.63,269.01c0,0,40.53-4.65,38.37,33.72C186.01,302.73,156.37,313.5,147.63,269.01z"/>
		<path class="st4" d="M189.1,305.3c0,0-8.7-19.35-32.69-26.35c0,0,30.54,20.57,28.83,27.22L189.1,305.3z"/>
	</g>
	<g>
		<path class="st3" d="M170.4,252.96c0,0,28.71-0.71,24.79,26.06C195.19,279.02,173.73,284.7,170.4,252.96z"/>
		<path class="st4" d="M197.19,281.01c0,0-4.88-14.11-21.27-20.53c0,0,20.12,16.35,18.5,20.9L197.19,281.01z"/>
	</g>
	<g>
		<path class="st3" d="M206.99,279.96c0,0,8.89,1.67,5.92,9.66C212.91,289.62,205.93,289.96,206.99,279.96z"/>
		<path class="st4" d="M213.4,290.37c0,0-0.58-4.67-5.2-7.72c0,0,5.12,6.36,4.33,7.66L213.4,290.37z"/>
	</g>
	<g>
		<path class="st3" d="M199.72,275.11c0,0,8.5,3.11,4.25,10.5C203.97,285.61,197.02,284.79,199.72,275.11z"/>
		<path class="st4" d="M204.33,286.42c0,0,0.2-4.7-3.86-8.47c0,0,4.01,7.12,3.01,8.26L204.33,286.42z"/>
	</g>
	<g>
		<path class="st3" d="M165.32,218.03c0,0,25.89,3.2,23.66,34.21c0,0-9.89,5.49-23.63-24.82c0,0-3.34-9.91-4.27-8.23
			C161.09,219.2,161.55,218.11,165.32,218.03z"/>
		<path class="st4" d="M171,224.93c0,0,13.54,11.81,19.76,30.28l-1.31,0.71C189.44,255.93,186.51,244.79,171,224.93z"/>
	</g>
	<g>
		<path class="st3" d="M157.06,252.05c0,0,12.67,1.43,11.73,16.6c0,0-4.81,2.73-11.67-12.01c0,0-1.68-4.82-2.13-4
			C155,252.64,155.22,252.11,157.06,252.05z"/>
		<path class="st4" d="M159.87,255.39c0,0,6.68,5.7,9.81,14.7l-0.64,0.36C169.04,270.45,167.55,265.02,159.87,255.39z"/>
	</g>
	<g>
		<path class="st3" d="M152.73,228.17c0,0,19.94,3.9,13.14,21.79C165.87,249.95,150.18,250.6,152.73,228.17z"/>
		<path class="st4" d="M166.95,251.64c0,0-1.22-10.5-11.55-17.43c0,0,11.4,14.37,9.59,17.27L166.95,251.64z"/>
	</g>
	<g>
		<path class="st3" d="M147.03,256.9c0,0,11.02-0.83,10.03,9.53C157.06,266.43,148.93,269.03,147.03,256.9z"/>
		<path class="st4" d="M157.87,267.16c0,0-2.15-5.33-8.57-7.47c0,0,8.05,5.89,7.52,7.67L157.87,267.16z"/>
	</g>
	<g>
		<path class="st3" d="M146.09,245.51c0,0,8.89,1.67,5.92,9.66C152.01,255.17,145.03,255.51,146.09,245.51z"/>
		<path class="st4" d="M152.5,255.92c0,0-0.58-4.67-5.2-7.72c0,0,5.12,6.36,4.33,7.66L152.5,255.92z"/>
	</g>
	<g>
		<path class="st3" d="M198.81,193.53c0,0,30.53,10.24,20.2,47.19c0,0-13.31,4.21-22.46-35.83c0,0-1.6-12.8-3.14-11
			C193.4,193.9,194.22,192.7,198.81,193.53z"/>
		<path class="st4" d="M203.97,203.27c0,0,13.47,17.61,16.44,41.48l-1.76,0.54C218.66,245.29,217.84,231.1,203.97,203.27z"/>
	</g>
	<g>
		<path class="st3" d="M179.98,203.87c0,0,21.48,4.4,17.55,30.24c0,0-8.65,3.94-18.14-22.37c0,0-2.14-8.52-3.03-7.18
			C176.36,204.57,176.81,203.69,179.98,203.87z"/>
		<path class="st4" d="M184.27,210.03c0,0,10.56,10.8,14.54,26.69l-1.15,0.51C197.67,237.23,195.95,227.7,184.27,210.03z"/>
	</g>
	<g>
		<path class="st3" d="M224.41,221.73c0,0,16.82,3.29,11.08,18.38C235.49,240.11,222.26,240.65,224.41,221.73z"/>
		<path class="st4" d="M236.41,241.53c0,0-1.03-8.85-9.74-14.7c0,0,9.62,12.12,8.09,14.56L236.41,241.53z"/>
	</g>
	<g>
		<path class="st3" d="M222.34,204.99c0,0,13.29,4.22,7.25,15.88C229.59,220.88,218.84,220.09,222.34,204.99z"/>
		<path class="st4" d="M230.19,222.11c0,0-0.01-7.25-6.51-12.79c0,0,6.65,10.69,5.18,12.52L230.19,222.11z"/>
	</g>
	<g>
		<path class="st3" d="M205.31,181.77c0,0,23.37,0.28,19.37,21.93C224.69,203.71,207.07,207.69,205.31,181.77z"/>
		<path class="st4" d="M226.26,205.39c0,0-3.55-11.62-16.68-17.33c0,0,15.87,13.89,14.42,17.55L226.26,205.39z"/>
	</g>
	<g>
		<path class="st3" d="M162.83,197.34c0,0,16.82,3.29,11.08,18.38C173.91,215.72,160.67,216.26,162.83,197.34z"/>
		<path class="st4" d="M174.82,217.14c0,0-1.03-8.85-9.74-14.7c0,0,9.62,12.12,8.09,14.56L174.82,217.14z"/>
	</g>
	<g>
		<path class="st3" d="M175.35,179.11c0,0,22.1,4.32,14.56,24.15C189.91,203.26,172.52,203.98,175.35,179.11z"/>
		<path class="st4" d="M191.1,205.13c0,0-1.35-11.63-12.8-19.32c0,0,12.63,15.92,10.62,19.14L191.1,205.13z"/>
	</g>
	<g>
		<path class="st3" d="M153.61,217.05c0,0,10.96,1.4,7.91,11.35C161.52,228.4,153.03,229.31,153.61,217.05z"/>
		<path class="st4" d="M162.16,229.27c0,0-1.03-5.65-6.89-9.04c0,0,6.7,7.39,5.82,9.02L162.16,229.27z"/>
	</g>
	<g>
		<path class="st3" d="M156.57,208.16c0,0,8.49,1.09,6.12,8.79C162.69,216.95,156.12,217.66,156.57,208.16z"/>
		<path class="st4" d="M163.19,217.63c0,0-0.8-4.38-5.34-7c0,0,5.19,5.72,4.5,6.99L163.19,217.63z"/>
	</g>
	<g>
		<path class="st3" d="M232.56,153.7c0,0,27.16,10.08,13.47,33.69C246.03,187.39,223.8,184.68,232.56,153.7z"/>
		<path class="st4" d="M247.16,190.01c0,0,0.71-15.05-12.24-27.19c0,0,12.73,22.84,9.51,26.5L247.16,190.01z"/>
	</g>
	<g>
		<path class="st3" d="M209.94,163.25c0,0,23.37,0.28,19.37,21.93C229.32,185.18,211.7,189.16,209.94,163.25z"/>
		<path class="st4" d="M230.89,186.86c0,0-3.55-11.62-16.68-17.33c0,0,15.87,13.89,14.42,17.55L230.89,186.86z"/>
	</g>
	<g>
		<path class="st3" d="M240.77,138.82c0,0,17.75,6.38,8.99,21.84C249.76,160.66,235.27,159.04,240.77,138.82z"/>
		<path class="st4" d="M250.51,162.35c0,0,0.36-9.8-8.15-17.62c0,0,8.44,14.78,6.36,17.19L250.51,162.35z"/>
	</g>
	<g>
		<path class="st3" d="M245.98,131.68c0,0,10.72,2.45,7.79,13.02c0,0-4.52,1.38-8.38-9.78c0,0-0.78-3.59-1.27-3.06
			C244.12,131.86,244.38,131.51,245.98,131.68z"/>
		<path class="st4" d="M247.93,134.35c0,0,4.96,4.78,6.4,11.46l-0.6,0.18C253.74,146,253.21,142,247.93,134.35z"/>
	</g>
	<g>
		<path class="st3" d="M187.05,167.13c0,0,20.67,3.51,13.1,22.27C200.15,189.4,183.79,190.49,187.05,167.13z"/>
		<path class="st4" d="M201.23,191.12c0,0-0.99-10.86-11.57-17.79c0,0,11.49,14.61,9.52,17.67L201.23,191.12z"/>
	</g>
	<g>
		<path class="st3" d="M216.81,143.23c0,0,17.5,5.43,9.66,20.81C226.46,164.04,212.34,163.09,216.81,143.23z"/>
		<path class="st4" d="M227.27,165.65c0,0-0.07-9.53-8.66-16.75c0,0,8.82,13.99,6.91,16.41L227.27,165.65z"/>
	</g>
	<g>
		<path class="st3" d="M202.11,163.45c0,0,12.23,5.05,5.59,15.6C207.7,179.05,197.6,177.44,202.11,163.45z"/>
		<path class="st4" d="M208.17,180.26c0,0,0.57-6.86-5.13-12.62c0,0,5.43,10.64,3.9,12.26L208.17,180.26z"/>
	</g>
	<g>
		<path class="st3" d="M193.14,159.12c0,0,8.89,1.67,5.92,9.66C199.06,168.78,192.08,169.12,193.14,159.12z"/>
		<path class="st4" d="M199.55,169.53c0,0-0.58-4.67-5.2-7.72c0,0,5.12,6.36,4.33,7.66L199.55,169.53z"/>
	</g>
	<g>
		<path class="st3" d="M200.76,153.04c0,0,8.89,1.67,5.92,9.66C206.68,162.7,199.7,163.04,200.76,153.04z"/>
		<path class="st4" d="M207.17,163.45c0,0-0.58-4.67-5.2-7.72c0,0,5.12,6.36,4.33,7.66L207.17,163.45z"/>
	</g>
	<g>
		<path class="st3" d="M208.98,152.08c0,0,8.89,1.67,5.92,9.66C214.91,161.73,207.92,162.07,208.98,152.08z"/>
		<path class="st4" d="M215.39,162.48c0,0-0.58-4.67-5.2-7.72c0,0,5.12,6.36,4.33,7.66L215.39,162.48z"/>
	</g>
	<g>
		<path class="st3" d="M228.64,138.55c0,0,12.72,2.39,8.47,13.82C237.12,152.37,227.12,152.86,228.64,138.55z"/>
		<path class="st4" d="M237.81,153.44c0,0-0.83-6.68-7.44-11.05c0,0,7.33,9.1,6.19,10.95L237.81,153.44z"/>
	</g>
</g>
</svg>
